<svg xmlns="http://www.w3.org/2000/svg" viewBox="0 0 32 32"><g fill="currentColor" class="nc-icon-wrapper"><path d="M16 16.93c-4.073 0-7.388-3.2-7.388-7.132S11.927 2.666 16 2.666s7.388 3.2 7.388 7.132S20.073 16.93 16 16.93zm0-12.403c-3.006 0-5.46 2.369-5.46 5.271s2.454 5.271 5.46 5.271 5.46-2.369 5.46-5.271S19.006 4.527 16 4.527z"></path><path d="M27.036 29.333c-.527 0-.964-.422-.964-.93 0-4.279-4.522-7.752-10.073-7.752S5.926 24.124 5.926 28.403c0 .509-.437.93-.964.93s-.964-.422-.964-.93c0-5.296 5.383-9.612 12-9.612s12 4.316 12 9.612c0 .509-.437.93-.964.93z"></path></g></svg>