<svg xmlns="http://www.w3.org/2000/svg" viewBox="0 0 32 32"><g fill="currentColor" class="nc-icon-wrapper"><path d="M12.051 24.237l.001-.031v-2.61a.833.833 0 0 0-1.666 0V24.2l-.001.057a7.75 7.75 0 0 0 .052.858c.065.539.21 1.273.539 2.018.33.749.856 1.531 1.689 2.124.84.598 1.936.964 3.336.964s2.496-.366 3.336-.964c.833-.593 1.358-1.375 1.689-2.124.329-.746.474-1.48.539-2.018.033-.272.046-.5.05-.663.002-.082.003-.148.002-.195l-.001-.057v-2.604a.833.833 0 0 0-1.666 0v2.611l.001.031v.033c0 .029 0 .074-.002.134-.003.12-.013.297-.039.511a5.536 5.536 0 0 1-.409 1.545c-.241.547-.599 1.061-1.131 1.439-.525.374-1.273.655-2.369.655s-1.844-.282-2.369-.655c-.531-.378-.889-.892-1.131-1.439a5.501 5.501 0 0 1-.409-1.545 5.443 5.443 0 0 1-.039-.511c-.002-.06-.002-.105-.002-.134l.001-.03v-.004z"></path><path d="M2.022 29.978a.833.833 0 0 0 .589.244h26.778a.833.833 0 0 0 .833-.833v-.419a2.5 2.5 0 0 0-1.521-2.3l-7.593-3.23a.833.833 0 1 0-.652 1.534l7.593 3.23a.837.837 0 0 1 .397.352H3.556a.828.828 0 0 1 .397-.352l7.593-3.23a.834.834 0 0 0-.652-1.534l-7.593 3.23a2.5 2.5 0 0 0-1.521 2.3v.419c0 .221.088.433.244.589z"></path><path d="M8.942 17.713c0 3.764 3.004 6.778 7.058 6.778s7.058-3.014 7.058-6.778V10.87a.823.823 0 0 0-.022-.191c-.374-1.589-.876-2.694-1.534-3.396-.702-.749-1.522-.975-2.317-.922-.718.048-1.417.325-1.944.535l-.026.01c-.614.244-.965.372-1.215.372-.101 0-.254-.026-.481-.096-.219-.068-.456-.16-.737-.269l-.045-.018c-.542-.21-1.256-.488-1.983-.535-.799-.052-1.629.17-2.328.927-.654.708-1.133 1.821-1.465 3.412a.811.811 0 0 0-.018.17v6.843zM16 22.824c-3.175 0-5.391-2.309-5.391-5.111v-6.756c.305-1.419.693-2.162 1.041-2.539.309-.335.621-.419.995-.395.437.028.919.204 1.509.434l.047.018c.262.102.549.213.827.299.292.09.629.17.973.17.603 0 1.251-.259 1.738-.453l.092-.037c.578-.23 1.043-.403 1.465-.431.358-.024.669.057.991.399.358.382.762 1.13 1.105 2.545v6.745c0 2.802-2.216 5.111-5.391 5.111z"></path><path d="M5.053 16.12a2.5 2.5 0 0 0 2.5 2.5h2.222c.46 0 .833-.373.833-.833V10.87a.833.833 0 0 0-.833-.833H7.553a2.5 2.5 0 0 0-2.5 2.5v3.584zm2.5.833a.833.833 0 0 1-.833-.833v-3.584c0-.46.373-.833.833-.833h1.389v5.251H7.553z"></path><path d="M21.391 17.787c0 .46.373.833.833.833h2.222a2.5 2.5 0 0 0 2.5-2.5v-3.584a2.5 2.5 0 0 0-2.5-2.5h-2.222a.833.833 0 0 0-.833.833v6.917zm1.667-.834v-5.251h1.389c.46 0 .833.373.833.833v3.584c0 .46-.373.833-.833.833h-1.389z"></path><path d="M15.869 19.745c0 .46.373.833.833.833h1.409c.933 0 1.844-.276 2.62-.793l1.956-1.304a.834.834 0 0 0-.925-1.387l-1.956 1.304a3.053 3.053 0 0 1-1.695.513h-1.409a.833.833 0 0 0-.833.833z"></path><path d="M8.03 11.703c.46 0 .833-.373.833-.833v-.288c0-2.104.447-3.866 1.494-5.095 1.025-1.204 2.752-2.041 5.642-2.041s4.617.838 5.642 2.041c1.047 1.229 1.494 2.992 1.494 5.095v.288a.833.833 0 0 0 1.666 0v-.288c0-2.298-.482-4.521-1.892-6.176-1.432-1.681-3.69-2.627-6.911-2.627s-5.479.946-6.911 2.627c-1.41 1.655-1.892 3.878-1.892 6.176v.288c0 .46.373.833.833.833z"></path></g></svg>