<svg xmlns="http://www.w3.org/2000/svg" viewBox="0 0 32 32"><g fill="currentColor" class="nc-icon-wrapper"><path d="M4.227 22.862h14.002a.498.498 0 0 0 .498-.498v-.002-.002a.498.498 0 0 0-.498-.498H4.225a.498.498 0 0 0-.498.498v.004c0 .275.223.498.498.498h.002z"></path><path d="M4.227 25.362h14.002a.498.498 0 0 0 .498-.498v-.002-.002a.498.498 0 0 0-.498-.498H4.225a.498.498 0 0 0-.498.498v.004c0 .275.223.498.498.498h.002z"></path><path d="M4.227 17.362h12.002a.498.498 0 0 0 .498-.498v-3.002-.002a.498.498 0 0 0-.498-.498H4.225a.498.498 0 0 0-.498.498V16.864c0 .275.223.498.498.498h.002zm.5-3h11v2h-11v-2z"></path><path d="M4.227 20.362h4.002a.498.498 0 0 0 .498-.498v-.002-.002a.498.498 0 0 0-.498-.498H4.225a.498.498 0 0 0-.498.498v.004c0 .275.223.498.498.498h.002z"></path><path d="M10.227 19.362h-.002a.498.498 0 0 0-.498.498v.004c0 .275.223.498.498.498H13.229a.498.498 0 0 0 .498-.498v-.002-.002a.498.498 0 0 0-.498-.498h-3.002z"></path><path d="M22.727 25.362h.002c.828 0 1.538-.504 1.841-1.222l.005-.013a1.97 1.97 0 0 0 .151-.765c0-.552-.223-1.053-.585-1.415a1.99 1.99 0 0 0-2.193-.428l.013-.005a2.009 2.009 0 0 0-1.235 1.848 2.006 2.006 0 0 0 2 2zm0-3h.007a1.002 1.002 0 1 1-.396 1.923l.006.003a1.006 1.006 0 0 1-.618-.924 1.003 1.003 0 0 1 1-1z"></path><path d="M21.367 15.645a8.66 8.66 0 0 0 2.08 1.476l.049.023a.498.498 0 0 0 .446 0l-.003.001a8.67 8.67 0 0 0 2.142-1.504l-.003.003c1.512-1.451 2.387-3.352 2.599-5.652a.506.506 0 0 0-.234-.469l-.002-.001c11.582 6.671 10.129 5.767 8.675 4.863L23.988 6.786a.5.5 0 0 0-.526.002l.002-.001-4.45 2.74a.507.507 0 0 0-.236.473v-.002c.212 2.299 1.083 4.199 2.589 5.649zm2.36-7.848l3.921 2.409c-.235 1.916-.995 3.501-2.262 4.716a7.702 7.702 0 0 1-1.627 1.191l-.04.02a7.684 7.684 0 0 1-1.661-1.212l.003.002c-1.262-1.214-2.02-2.799-2.254-4.714l3.92-2.413z"></path><path d="M23.227 13.862a.495.495 0 0 0 .353-.147l2.5-2.5a.499.499 0 0 0-.353-.854h-.001a.502.502 0 0 0-.354.146l-2.146 2.146-.646-.646a.499.499 0 0 0-.854.353v.001c0 .133.053.26.146.354l1 1a.483.483 0 0 0 .348.147h.005z"></path><path d="M3.227 28.362h22a2.503 2.503 0 0 0 2.5-2.5v-9.033c1.452-1.502 2.997-4.027 2.997-7.968a.5.5 0 0 0-.236-.425l-.002-.001-6.497-4a.504.504 0 0 0-.528.001l.002-.001-6.497 4a.49.49 0 0 0-.237.42v.007c0 .501.026 1.002.079 1.5H3.229a2.503 2.503 0 0 0-2.5 2.5v13a2.503 2.503 0 0 0 2.5 2.5zM23.726 5.449l5.996 3.691c-.059 3.028-1.084 5.491-3.049 7.325a9.347 9.347 0 0 1-2.885 1.849l-.063.022a9.285 9.285 0 0 1-2.919-1.846l.005.005c-1.987-1.837-3.023-4.31-3.082-7.355l5.996-3.691zM1.727 12.862a1.5 1.5 0 0 1 1.5-1.5h13.726c.54 2.861 1.952 4.733 3.179 5.867 1.687 1.559 3.366 2.089 3.437 2.111a.474.474 0 0 0 .145.022H23.734c.05 0 .1-.008.147-.022.063-.019 1.378-.434 2.845-1.603v8.125a1.5 1.5 0 0 1-1.5 1.5h-22a1.5 1.5 0 0 1-1.5-1.5v-13z"></path></g></svg>