<svg xmlns="http://www.w3.org/2000/svg" viewBox="0 0 32 32"><g fill="currentColor" class="nc-icon-wrapper"><path d="M8.727 2.909a6.545 6.545 0 0 0-6.545 6.545v18.792c0 .61.705.949 1.182.568l4.113-3.29a3.61 3.61 0 0 1 2.272-.797h13.525a6.545 6.545 0 0 0 6.545-6.545V9.455a6.545 6.545 0 0 0-6.545-6.545H8.729zm-8 6.546a8 8 0 0 1 8-8h14.545a8 8 0 0 1 8 8v8.727a8 8 0 0 1-8 8H9.747c-.495 0-.976.169-1.363.478l-4.113 3.29c-1.429 1.143-3.545.126-3.545-1.704V9.454z"></path><path d="M10.618 13.891a1.818 1.818 0 0 1-3.636 0 1.818 1.818 0 0 1 3.636 0z"></path><path d="M17.891 13.891a1.818 1.818 0 0 1-3.636 0 1.818 1.818 0 0 1 3.636 0z"></path><path d="M25.164 13.891a1.818 1.818 0 0 1-3.636 0 1.818 1.818 0 0 1 3.636 0z"></path></g></svg>