<svg xmlns="http://www.w3.org/2000/svg" viewBox="0 0 27 32"><g fill="currentColor" class="nc-icon-wrapper"><path d="M16.274 5.12V3.429h.274c.229 0 .411-.183.411-.457v-.914c0-1.143-.914-2.057-2.011-2.057h-2.971c-1.097 0-2.011.914-2.011 2.057v.96c0 .229.183.457.411.457h.274v1.691a13.332 13.332 0 0 0-5.38 2.492l.031-.023-1.006-1.006a.882.882 0 0 0-1.28-.001L1.782 7.862c-.183.183-.274.411-.274.64s.091.457.274.64l.96.96a13.866 13.866 0 0 0-2.743 8.313v.007c0 7.497 6.034 13.577 13.486 13.577s13.486-6.08 13.486-13.577c0-6.537-4.617-11.977-10.697-13.303zm-5.44-3.063c0-.64.503-1.189 1.143-1.189h2.971c.64 0 1.143.503 1.143 1.189v.549h-5.257v-.549zm4.572 1.417v1.509a13.775 13.775 0 0 0-3.99.019l.076-.009.074-.009V3.475h3.84zM2.469 8.503c0-.046 0-.046 0 0l1.234-1.28h.046l.914.914c-.457.411-.869.823-1.28 1.28l-.914-.914zm11.017 22.628C6.537 31.131.869 25.417.869 18.422S6.538 5.713 13.486 5.713c6.949 0 12.617 5.714 12.617 12.709s-5.669 12.709-12.617 12.709zm0-23.314c-5.806 0-10.514 4.754-10.514 10.606s4.709 10.606 10.514 10.606S24 24.275 24 18.423c0-5.851-4.709-10.606-10.514-10.606zm0 20.343c-5.303 0-9.646-4.389-9.646-9.737s4.343-9.737 9.646-9.737c5.303 0 9.646 4.343 9.646 9.737 0 5.349-4.343 9.737-9.646 9.737zm0-15.726c-.183 0-.366.137-.411.366 0 0-1.143 5.44-1.143 5.669 0 .869.686 1.554 1.554 1.554s1.554-.686 1.554-1.554c0-.183-1.143-5.669-1.143-5.669-.046-.229-.229-.366-.411-.366zm0 2.606l.366 1.874c-.137-.046-.229-.046-.366-.046s-.274 0-.366.046l.366-1.874zm.685 3.383c0 .366-.32.686-.686.686s-.686-.32-.686-.686.32-.686.686-.686.686.274.686.686zm-.685 6.72c-.229 0-.411.183-.411.457v1.691c0 .229.183.457.411.457s.411-.183.411-.457V25.6c0-.229-.183-.457-.411-.457zm0-13.486c.229 0 .411-.183.411-.457V9.509c0-.229-.183-.457-.411-.457s-.411.183-.411.457V11.2c0 .274.183.457.411.457zm-5.349 11.52l-1.189 1.189c-.183.183-.183.457 0 .594a.415.415 0 0 0 .309.137h.012-.001a.496.496 0 0 0 .32-.137l1.189-1.189c.183-.183.183-.457 0-.594a.44.44 0 0 0-.64 0zm10.377-9.417h.011a.415.415 0 0 0 .308-.137l1.189-1.189c.183-.183.183-.457 0-.594-.183-.183-.457-.183-.594 0l-1.189 1.189a.415.415 0 0 0-.137.309v.012-.001.001c0 .226.184.41.41.41h.001zm-12.16 4.206H4.663c-.229 0-.411.183-.411.457 0 .229.183.457.411.457h1.691c.229 0 .411-.183.411-.457.046-.229-.183-.457-.411-.457zm15.909 0h-1.691c-.229 0-.411.183-.411.457s.183.457.411.457h1.691c.229 0 .411-.183.411-.457s-.137-.457-.411-.457zM8.137 13.669a.415.415 0 0 0 .309.137h.012-.001c.229 0 .411-.183.411-.457v-.011a.415.415 0 0 0-.137-.308l-1.189-1.189c-.183-.183-.457-.183-.594 0-.183.183-.183.457 0 .594l1.189 1.234zm10.697 9.508c-.183-.183-.457-.183-.594 0-.183.183-.183.457 0 .594l1.189 1.189a.415.415 0 0 0 .309.137h.012-.001a.496.496 0 0 0 .32-.137c.183-.183.183-.457 0-.594l-1.234-1.189z"></path></g></svg>