<svg xmlns="http://www.w3.org/2000/svg" viewBox="0 0 32 32"><g fill="currentColor" class="nc-icon-wrapper"><path d="M22.05 16.05H18.1c-.2-.75-.8-1.35-1.6-1.55V8.9c0-.3-.25-.55-.55-.55s-.55.25-.55.55v5.6c-.95.25-1.65 1.1-1.65 2.1 0 1.2 1 2.2 2.2 2.2 1 0 1.9-.7 2.15-1.65h3.95c.3 0 .55-.25.55-.55s-.25-.55-.55-.55zM16 17.7c-.6 0-1.1-.5-1.1-1.1s.5-1.1 1.1-1.1c.6 0 1.1.5 1.1 1.1s-.5 1.1-1.1 1.1zM27.65 5.35L29.9 7.6c.1.1.25.15.4.15s.3-.05.4-.15c1.75-1.75 1.75-4.6 0-6.3-.813-.811-1.936-1.313-3.175-1.313S25.163.489 24.35 1.3c-.1.1-.15.25-.15.4s.05.3.15.4l2.5 2.5-.95.95c-2.6-2.4-6.1-3.8-9.9-3.8S8.7 3.2 6.05 5.55L5.1 4.6l2.5-2.5c.1-.1.15-.25.15-.4s-.05-.3-.15-.4C5.85-.45 3-.45 1.25 1.3s-1.75 4.6 0 6.3c.1.1.25.15.4.15s.3-.05.4-.15L4.3 5.35l.9.9c-2.6 2.65-4.15 6.3-4.15 10.3C1.05 22 4 26.75 8.4 29.35L6.75 31c-.2.2-.2.55 0 .8.1.1.25.15.4.15s.3-.05.4-.15l1.9-1.9c1.95.95 4.2 1.5 6.55 1.5s4.55-.55 6.55-1.5l1.9 1.9c.1.1.25.15.4.15s.3-.05.4-.15c.2-.2.2-.55 0-.8l-1.65-1.65c4.4-2.6 7.35-7.35 7.35-12.8 0-4-1.6-7.65-4.15-10.3l.85-.9zm-2.1-3.6c1.3-.95 3.15-.8 4.35.35 1.2 1.2 1.3 3.05.35 4.35l-4.7-4.7zm-23.8 4.7C.8 5.15.9 3.3 2.1 2.1S5.15.8 6.45 1.75l-4.7 4.7zM29.8 16.6c0 7.6-6.2 13.75-13.8 13.75S2.2 24.2 2.2 16.6 8.4 2.85 16 2.85c7.6 0 13.8 6.15 13.8 13.75zM16 5.5c.3 0 .55-.25.55-.55V4.4c0-.3-.25-.55-.55-.55s-.55.25-.55.55v.55c0 .35.25.55.55.55zm0 22.05c-.3 0-.55.25-.55.55v.55c0 .3.25.55.55.55s.55-.25.55-.55v-.55c0-.3-.25-.55-.55-.55zM27.6 17.1h.55c.3 0 .55-.25.55-.55s-.25-.55-.55-.55h-.55c-.3 0-.55.25-.55.55s.25.55.55.55zM4.4 16h-.55c-.3 0-.55.25-.55.55s.25.55.55.55h.55c.3 0 .55-.25.55-.55S4.7 16 4.4 16zm19.8-8.4l-.4.4c-.2.2-.2.55 0 .8.1.1.25.15.4.15s.3-.05.4-.15l.4-.4c.2-.2.2-.55 0-.8-.25-.25-.6-.25-.8 0zM7.4 24.3l-.4.4c-.2.2-.2.55 0 .8.1.1.25.15.4.15s.3-.05.4-.15l.4-.4c.2-.2.2-.55 0-.8-.2-.2-.55-.2-.8 0zm17.2 0c-.2-.2-.55-.2-.8 0-.2.2-.2.55 0 .8l.4.4c.1.1.25.15.4.15s.3-.05.4-.15c.2-.2.2-.55 0-.8l-.4-.4zM7.8 7.6c-.2-.2-.55-.2-.8 0-.2.2-.2.55 0 .8l.4.4c.1.1.25.15.4.15s.3-.05.4-.15c.2-.2.2-.55 0-.8l-.4-.4z"></path></g></svg>