<svg xmlns="http://www.w3.org/2000/svg" viewBox="0 0 32 32"><g fill="currentColor" class="nc-icon-wrapper"><path d="M12.044 8.132a.835.835 0 1 0 1.64-.327.837.837 0 0 0-1.64.327z"></path><path d="M30.07 19.819c-4.553-13.253-4.24-12.345-4.259-12.39a4.275 4.275 0 0 0-2.524-2.34c-.162-.056-9.326-2.2-9.591-2.291-.812-.281-1.941-.124-2.733.605L3.109 10.63a4.318 4.318 0 0 0-1.389 3.172v12.797a2.73 2.73 0 0 0 2.72 2.735h16.802a2.73 2.73 0 0 0 2.72-2.735v-1.237l4.683-2.004a2.718 2.718 0 0 0 1.424-3.538zm-8.827 7.841H4.441a1.056 1.056 0 0 1-1.047-1.062V13.801c0-.737.309-1.444.849-1.94 6.729-6.191 2.57-2.329 7.88-7.227a1.06 1.06 0 0 1 1.039-.243c.339.101-.259-.386 8.279 7.471.539.496.849 1.203.849 1.94v12.797c0 .585-.47 1.062-1.047 1.062zm6.742-5.84l-4.022 1.721v-9.74c0-1.204-.506-2.36-1.389-3.172l-5.849-5.382 6.053 1.436c.661.239 1.199.74 1.485 1.381 4.544 13.228 4.238 12.34 4.258 12.386a1.041 1.041 0 0 1-.536 1.369z"></path><path d="M15.217 13.005a.836.836 0 0 0-1.095.448l-4.073 9.708a.838.838 0 0 0 1.543.648l4.073-9.708a.836.836 0 0 0-.448-1.095z"></path><path d="M11.296 15.416c0-1.615-1.183-2.929-2.637-2.929s-2.637 1.314-2.637 2.929c0 1.615 1.183 2.929 2.637 2.929s2.637-1.314 2.637-2.929zm-2.637 1.255c-.522 0-.963-.575-.963-1.255s.441-1.255.963-1.255.963.575.963 1.255-.441 1.255-.963 1.255z"></path><path d="M17.102 19.125c-1.454 0-2.637 1.314-2.637 2.929s1.183 2.929 2.637 2.929 2.637-1.314 2.637-2.929-1.183-2.929-2.637-2.929zm0 4.184c-.522 0-.963-.575-.963-1.255s.441-1.255.963-1.255.963.575.963 1.255-.441 1.255-.963 1.255z"></path></g></svg>