<svg xmlns="http://www.w3.org/2000/svg" viewBox="0 0 32 32"><g fill="currentColor" class="nc-icon-wrapper"><path d="M30.057 13.681a2.501 2.501 0 0 0-.566-2.662l-8.51-8.51a2.503 2.503 0 0 0-3.536 0l-9.567 9.567H4.277a2.503 2.503 0 0 0-2.5 2.5v13.146c0 1.379 1.122 2.5 2.5 2.5h23.445c1.379 0 2.5-1.122 2.5-2.5V14.576c0-.315-.059-.617-.166-.895zm-1.81-1.549a2.51 2.51 0 0 0-.524-.056h-1.806l1.137-1.137 1.193 1.193zm-2.372-2.371l-2.316 2.315h-2.357l3.494-3.494 1.179 1.179zm-7.251-6.074a.834.834 0 0 1 1.178 0l3.716 3.716-4.673 4.673h-8.611l8.389-8.389zm9.932 24.035a.834.834 0 0 1-.833.833H4.278a.834.834 0 0 1-.833-.833V14.576c0-.459.374-.833.833-.833h23.445c.459 0 .833.374.833.833v13.146z"></path><path d="M5.055 24.366h3.884v1.667H5.055v-1.667z"></path><path d="M11.057 24.366h3.884v1.667h-3.884v-1.667z"></path><path d="M17.059 24.366h3.884v1.667h-3.884v-1.667z"></path><path d="M23.061 24.366h3.884v1.667h-3.884v-1.667z"></path><path d="M9.348 15.965H6.5a1.39 1.39 0 0 0-1.389 1.389v2.222A1.39 1.39 0 0 0 6.5 20.965h2.848a1.39 1.39 0 0 0 1.389-1.389v-2.222a1.39 1.39 0 0 0-1.389-1.389zm-.278 3.334H6.777v-1.667H9.07v1.667z"></path></g></svg>