<svg xmlns="http://www.w3.org/2000/svg" viewBox="0 0 32 32"><g fill="currentColor" class="nc-icon-wrapper"><path d="M12.539 9.797a7.64 7.64 0 0 1-2.447-.4.624.624 0 1 0-.4 1.184 8.883 8.883 0 0 0 2.847.466 8.853 8.853 0 0 0 5.02-1.553 8.5 8.5 0 0 0 4.394 1.536.726.726 0 0 0 .769-.725.625.625 0 0 0-.937-.542 7.24 7.24 0 0 1-3.832-1.536.625.625 0 0 0-.768-.006 7.598 7.598 0 0 1-4.645 1.575z"></path><path d="M5.159 12.658A3.692 3.692 0 0 0 8.85 16.35h1.047c.345 0 .625-.28.625-.625V9.592a.625.625 0 0 0-.625-.625H8.85a3.691 3.691 0 0 0-3.691 3.691zm3.691 2.441a2.441 2.441 0 0 1 0-4.882h.422V15.1H8.85z"></path><path d="M21.477 15.724c0 .345.28.625.625.625h1.047a3.691 3.691 0 1 0 0-7.382h-1.047a.625.625 0 0 0-.625.625v6.133zm1.25-.625v-4.883h.422a2.441 2.441 0 0 1 0 4.882h-.422z"></path><path d="M7.512 10.22c.345 0 .625-.28.625-.625v-.482c0-4.343 3.52-7.863 7.863-7.863s7.863 3.52 7.863 7.863v.482a.625.625 0 0 0 1.25 0v-.482a9.113 9.113 0 1 0-18.226 0v.482c0 .345.28.625.625.625z"></path><path d="M9.913 10.3c.345 0 .625-.28.625-.625v-.463c0-3.011 2.451-5.462 5.462-5.462s5.463 2.451 5.463 5.462v.463a.625.625 0 0 0 1.25 0v-.463c0-3.702-3.011-6.712-6.712-6.712S9.289 5.511 9.289 9.212v.463c0 .345.28.625.625.625z"></path><path d="M17.255 16.313c0 .345.28.625.625.625h3.541a.625.625 0 0 0 0-1.25H17.88a.625.625 0 0 0-.625.625z"></path><path d="M15.609 16.943a.63.63 0 1 1 0-1.26h.837a.63.63 0 1 1 0 1.26h-.837zm-1.88-.63a1.88 1.88 0 0 0 1.88 1.88h.837a1.88 1.88 0 0 0 0-3.76h-.837a1.88 1.88 0 0 0-1.88 1.88z"></path><path d="M16 19.453a5.478 5.478 0 0 1-5.478-5.478v-3.087a.625.625 0 0 0-1.25 0v3.087a6.728 6.728 0 1 0 13.456 0v-2.781a.625.625 0 0 0-1.25 0v2.781A5.478 5.478 0 0 1 16 19.453z"></path><path d="M13.389 22.333c.345 0 .625-.28.625-.625V19.59a.625.625 0 0 0-1.25 0v2.118c0 .345.28.625.625.625z"></path><path d="M0 31.375c0 .345.28.625.625.625h12.563a.625.625 0 0 0 0-1.25H1.273a8.6 8.6 0 0 1 8.577-7.975h1.947a.625.625 0 0 0 0-1.25H9.85c-5.44 0-9.85 4.41-9.85 9.85z"></path><path d="M18.188 31.375c0 .345.28.625.625.625h12.563c.345 0 .625-.28.625-.625 0-5.44-4.41-9.85-9.85-9.85H20.1a.625.625 0 0 0 0 1.25h2.051a8.6 8.6 0 0 1 8.577 7.975H18.813a.625.625 0 0 0-.625.625z"></path><path d="M18.611 22.333c.345 0 .625-.28.625-.625V19.59a.625.625 0 0 0-1.25 0v2.118c0 .345.28.625.625.625z"></path><path d="M19.047 27.94a.625.625 0 0 0 .458-.271l2.957-4.347a.625.625 0 0 0-.263-.923l-3.181-1.416a.625.625 0 0 0-.696.129l-2.769 2.769a.625.625 0 0 0 0 .884l2.994 2.994a.622.622 0 0 0 .501.18zm-2.169-3.616l2.023-2.023 2.106.937-2.111 3.104-2.018-2.018z"></path><path d="M12.942 27.94a.63.63 0 0 0 .501-.18l2.994-2.994a.625.625 0 0 0 0-.884l-2.769-2.769a.625.625 0 0 0-.696-.129L9.791 22.4a.626.626 0 0 0-.263.923l2.957 4.347a.628.628 0 0 0 .458.271zm.151-1.598l-2.111-3.104 2.106-.937 2.023 2.023-2.018 2.018z"></path></g></svg>