<svg xmlns="http://www.w3.org/2000/svg" viewBox="0 0 32 32"><g fill="currentColor" class="nc-icon-wrapper"><path d="M30.9 27.35l-2.85-11.5c-.3-1.2-1.35-2-2.55-2l-6.35-.5v-1.8c.95-.9 1.6-2.15 1.6-3.55V2.65C20.75 1.2 19.55 0 18.1 0h-4.25C12.4 0 11.2 1.2 11.2 2.65V8c0 1.4.6 2.7 1.6 3.55v1.8l-6.3.5c-1.2 0-2.25.8-2.55 2L1.1 27.35c-.25.95-.1 1.95.4 2.85.5.85 1.3 1.45 2.3 1.7.1.05.2.05.3.05.1.05.15.05.25.05H9.1c1.3 0 2.35-.9 2.6-2.15h8.6c.25 1.2 1.3 2.15 2.6 2.15h4.75c.1 0 .15 0 .2-.05 1.75-.3 3.15-1.8 3.15-3.7 0-.3-.05-.6-.1-.9zm-5.45-12.4c.75 0 1.35.5 1.55 1.2l1.7 6.8h-2.65v-6.4c0-.3-.25-.55-.55-.55h-8.2l1.55-1.6 6.6.55zm-.45 2.1v2.65h-6.35v-2.65H25zm-10.6 2.7V17.1h3.2v2.65h-3.2zm3.2 1.05v2.15h-3.2V20.8h3.2zm-1.6-5l-2.1-2.15V12.3c.65.3 1.35.5 2.1.5s1.5-.2 2.1-.5v1.35L16 15.8zM12.3 2.65c0-.9.7-1.6 1.6-1.6h4.25c.9 0 1.6.7 1.6 1.6v1.1c-.45-.35-1-.55-1.6-.55H13.9c-.6 0-1.15.2-1.6.55v-1.1zm7.3 2.7h-7.2c.2-.6.8-1.05 1.5-1.05h4.25c.65-.05 1.25.4 1.45 1.05zM12.3 8V6.4h2.65v2.15c0 .3.25.55.55.55h1.05V8H16V6.4h3.7V8c0 2.05-1.65 3.75-3.7 3.75s-3.7-1.7-3.7-3.75zM5 16.15c.2-.7.8-1.2 1.6-1.2l6.6-.5 1.55 1.6h-8.3c-.3 0-.55.25-.55.55V23H3.3L5 16.15zm8.35.9v2.65H7v-2.65h6.35zM3.8 27.75v3.05c-.6-.2-1.05-.6-1.4-1.15a2.81 2.81 0 0 1-.3-2L3.05 24h2.9v2.25c-.15-.05-.35-.1-.55-.1-.85 0-1.6.7-1.6 1.6zm5.3 3.2H4.9v-3.2c0-.3.25-.55.55-.55s.55.25.55.55v1.6c0 .3.25.55.55.55h4.15c-.3.6-.9 1.05-1.6 1.05zM7 28.8v-8h6.35v2.65c0 .3.25.55.55.55h4.25c.3 0 .55-.25.55-.55V20.8H25v8H7zm20.1 2.15h-4.25c-.7 0-1.3-.45-1.5-1.05h4.25c.25-.05.45-.25.45-.5v-1.6c0-.3.25-.55.55-.55s.55.25.55.55v3.15h-.05zm1.1-.2V27.7c0-.9-.7-1.6-1.6-1.6-.2 0-.35.05-.55.1V24h2.9l.9 3.6c.05.2.1.45.1.65 0 1.15-.75 2.15-1.75 2.5zm-5.3-3h1.05V26.7H22.9v1.05zm-2.15 0h1.05V26.7h-1.05v1.05z"></path></g></svg>