<svg xmlns="http://www.w3.org/2000/svg" viewBox="0 0 32 32"><g fill="currentColor" class="nc-icon-wrapper"><path d="M7.975 11.981H6.613c-.944 0-1.817.511-2.281 1.339l-.949 1.693h4.592v-3.032zm-1.362-2.5h2.612a1.252 1.252 0 0 1 1.25 1.25v5.532c0 .69-.56 1.25-1.25 1.25H1.25a1.25 1.25 0 0 1-1.091-1.861l1.992-3.554a5.116 5.116 0 0 1 4.462-2.617z"></path><path d="M6.181 23.247c-.957 0-1.746.783-1.746 1.766s.79 1.766 1.746 1.766c.957 0 1.746-.783 1.746-1.766s-.79-1.766-1.746-1.766zm-4.246 1.766c0-2.348 1.893-4.266 4.246-4.266s4.246 1.918 4.246 4.266-1.893 4.266-4.246 4.266-4.246-1.918-4.246-4.266z"></path><path d="M23.053 23.247c-.957 0-1.746.783-1.746 1.766s.789 1.766 1.746 1.766 1.746-.783 1.746-1.766-.79-1.766-1.746-1.766zm-4.246 1.766c0-2.348 1.893-4.266 4.246-4.266s4.246 1.918 4.246 4.266-1.893 4.266-4.246 4.266-4.246-1.918-4.246-4.266z"></path><path d="M7.783 23.857c0-.69.56-1.25 1.25-1.25h11.145a1.25 1.25 0 0 1 0 2.5H9.033c-.69 0-1.25-.56-1.25-1.25z"></path><path d="M0 16.263c0-.69.56-1.25 1.25-1.25h7.846a1.25 1.25 0 0 1 0 2.5H2.5V21.8c0 .449.362.807.801.807a1.25 1.25 0 0 1 0 2.5A3.304 3.304 0 0 1 0 21.8v-5.537z"></path><path d="M30.75 18.729c.69 0 1.25.56 1.25 1.25a5.123 5.123 0 0 1-5.117 5.128h-.996a1.25 1.25 0 0 1 0-2.5h.996a2.622 2.622 0 0 0 2.617-2.628c0-.69.56-1.25 1.25-1.25z"></path><path d="M7.975 7.849a5.123 5.123 0 0 1 5.117-5.128h13.79a5.122 5.122 0 0 1 5.117 5.128v5.88a1.25 1.25 0 0 1-2.5 0v-5.88a2.622 2.622 0 0 0-2.617-2.628h-13.79a2.622 2.622 0 0 0-2.617 2.628v15.34a1.25 1.25 0 0 1-2.5 0V7.849z"></path><path d="M19.839 12.251c0-.69.56-1.25 1.25-1.25h9.267a1.25 1.25 0 0 1 0 2.5h-9.267c-.69 0-1.25-.56-1.25-1.25z"></path><path d="M23.682 9.062a1.25 1.25 0 0 1 0 1.768l-1.421 1.421 1.421 1.421a1.25 1.25 0 0 1-1.768 1.768l-2.305-2.305a1.25 1.25 0 0 1 0-1.768l2.305-2.305a1.25 1.25 0 0 1 1.768 0z"></path></g></svg>