<svg xmlns="http://www.w3.org/2000/svg" viewBox="0 0 32 32"><g fill="currentColor" class="nc-icon-wrapper"><path d="M30.67 19.734c.476-1.355.737-2.812.737-4.328 0-1.487-.252-2.915-.71-4.247a.678.678 0 0 0-.048-.142c-1.795-5.035-6.583-8.646-12.195-8.646a.679.679 0 0 0-.677.681v24.711c0 .377.303.681.677.681.017 0 .033-.004.05-.005.272-.002.542-.013.811-.031a.685.685 0 0 0 .205.036c.1 0 .197-.03.29-.075 5.013-.528 9.184-3.946 10.835-8.563.01-.023.016-.047.024-.072zm-1.641-9.116h-4.12a17.883 17.883 0 0 0-3.51-6.503c3.407.901 6.204 3.326 7.63 6.503zm-9.897-6.864l.065.005a.697.697 0 0 0 .118.138c.037.032 2.798 2.472 4.168 6.721h-4.351V3.754zm0 8.226h4.722a15.34 15.34 0 0 1-.012 6.869h-4.71V11.98zm.159 15.064l-.159.012v-6.844h4.332c-1.206 3.698-3.469 6.137-4.173 6.832zm2.168-.366c1.116-1.367 2.584-3.569 3.437-6.466h4.123c-1.421 3.149-4.188 5.554-7.56 6.466zm8.078-7.828h-4.298a17.118 17.118 0 0 0 .009-6.869h4.295c.331 1.084.51 2.233.51 3.425 0 1.198-.181 2.355-.516 3.444z"></path><path d="M10.648 29.157h.001a8.99 8.99 0 0 0 3.318-.628l1.483 1.496a.661.661 0 0 0 .948-.005.693.693 0 0 0-.005-.967l-1.017-1.025a.684.684 0 0 0 .057-.275V6.663c0-.378-.3-.684-.67-.684s-.67.306-.67.684v6.77l-3.625-3.113c-.283-.243-.706-.206-.945.082s-.202.72.081.964l4.387 3.767c.031.027.067.039.101.059v4.166a9.759 9.759 0 0 0-1.479-1.96c-1.659-1.691-4.13-3.001-6.55-3.563.088-4.726 3.503-9.021 8.563-10.725.352-.119.542-.505.426-.864s-.496-.552-.847-.435c-5.53 1.863-9.291 6.566-9.483 11.791a9.803 9.803 0 0 0-1.11-.067c-1.037 0-1.967.18-2.764.535a.674.674 0 0 0-.346.353c-1.495 3.499.55 8.958 3.399 11.861 1.817 1.852 4.213 2.872 6.746 2.872zM1.634 15.223c.574-.213 1.238-.32 1.98-.32 2.699 0 6.085 1.456 8.052 3.463 2.1 2.14 2.893 5.267 2.133 8.071l-4.54-4.578-.029-3.275a.677.677 0 0 0-.67-.677h-.006a.677.677 0 0 0-.664.69l.017 1.899L5.829 18.4c-.263-.266-.688-.263-.948.005s-.258.701.005.967l3.233 3.261.002.002 1.209 1.22-3.218-.321c-.375-.038-.696.238-.732.613s.233.71.601.747l4.86.485 2.062 2.079a7.71 7.71 0 0 1-2.255.335c-2.176 0-4.235-.877-5.799-2.471C2.435 22.861.58 18.188 1.633 15.225z"></path></g></svg>