<svg xmlns="http://www.w3.org/2000/svg" viewBox="0 0 32 32"><g fill="currentColor" class="nc-icon-wrapper"><path d="M8.586 11.12c-1.992 1.66-3.386 3.614-4.09 4.73L4.4 16l.094.15c.704 1.116 2.1 3.07 4.09 4.732 1.986 1.658 4.474 2.952 7.414 2.952s5.43-1.294 7.416-2.952c1.99-1.66 3.384-3.616 4.09-4.732L27.6 16c-.074-.124-.106-.173-.137-.221l.043.071c-.706-1.116-2.1-3.07-4.09-4.732C21.43 9.46 18.94 8.166 16 8.166s-5.428 1.294-7.414 2.952zM6.66 8.814c2.324-1.94 5.472-3.65 9.34-3.65 3.866 0 7.012 1.71 9.336 3.65 2.32 1.936 3.91 4.172 4.704 5.432l.034.052c.156.246.374.588.484 1.066.088.388.088.88 0 1.268-.11.478-.328.82-.484 1.066l-.034.052c-.794 1.26-2.384 3.496-4.704 5.432-2.324 1.94-5.47 3.65-9.338 3.65-3.866 0-7.014-1.71-9.338-3.65-2.32-1.936-3.908-4.172-4.704-5.432l-.087-.147.055.095c-.154-.244-.372-.586-.484-1.064a3.062 3.062 0 0 1 .003-1.288l-.004.02c.11-.478.328-.82.484-1.066-.046.081-.036.064-.025.047l.057-.099c.796-1.26 2.384-3.496 4.704-5.432zM16 13.498a2.5 2.5 0 1 0 0 5 2.5 2.5 0 1 0 0-5zM10.5 16a5.5 5.5 0 1 1 11 0 5.5 5.5 0 1 1-11 0z"></path></g></svg>