<svg xmlns="http://www.w3.org/2000/svg" viewBox="0 0 32 32"><g fill="currentColor" class="nc-icon-wrapper"><path d="M30.265 15.5l-3.525-1.32-1.105-3.81a.75.75 0 0 0-.72-.545h-3.85V8a2.732 2.732 0 0 0-2.73-2.73H8a2.731 2.731 0 0 0-2.543 1.68A2.739 2.739 0 0 0 5.245 8a.753.753 0 0 0 .75.75.753.753 0 0 0 .75-.75 1.218 1.218 0 0 1 .373-.872A1.216 1.216 0 0 1 8 6.781h1.24v5.165a.759.759 0 0 0 .376.642.747.747 0 0 0 .744.008l2.54-1.445 2.56 1.445a.754.754 0 0 0 .747-.003.75.75 0 0 0 .374-.646V6.782h1.755a1.234 1.234 0 0 1 1.23 1.22v14.5h-3.23a3.497 3.497 0 0 0-3.435-2.828 3.5 3.5 0 0 0-3.435 2.828H8.001a1.225 1.225 0 0 1-1.23-1.224.753.753 0 0 0-.75-.75.749.749 0 0 0-.75.75 2.732 2.732 0 0 0 2.73 2.725h1.5a3.497 3.497 0 0 0 3.435 2.828 3.5 3.5 0 0 0 3.435-2.828h5.35a3.497 3.497 0 0 0 3.435 2.828 3.5 3.5 0 0 0 3.435-2.828h1.41a.753.753 0 0 0 .75-.75v-7a.75.75 0 0 0-.485-.75zM15.08 10.66l-1.815-1a.718.718 0 0 0-.735 0l-1.815 1V6.78h4.365v3.88zM12.9 25.25a1.997 1.997 0 0 1-1.848-1.235 1.998 1.998 0 0 1 2.613-2.613A2.004 2.004 0 0 1 14.9 23.25a2 2 0 0 1-2 2zm12.255 0a1.997 1.997 0 0 1-1.848-1.235 1.998 1.998 0 0 1 2.613-2.613 2.004 2.004 0 0 1 1.235 1.848 2 2 0 0 1-2 2zm4.095-2.75h-.66a3.5 3.5 0 0 0-6.866 0h-.66V11.34h3.285L25.404 15a.752.752 0 0 0 .46.5l3.385 1.27v5.73z"></path><path d="M2 12h4.85a.753.753 0 0 0 .75-.75.753.753 0 0 0-.75-.75H2a.753.753 0 0 0-.75.75A.753.753 0 0 0 2 12z"></path><path d="M3.675 14.63a.753.753 0 0 0 .75.75h6.81a.753.753 0 0 0 .75-.75.753.753 0 0 0-.75-.75h-6.81a.753.753 0 0 0-.75.75z"></path><path d="M15.75 18.085a.753.753 0 0 0-.75-.75H2a.753.753 0 0 0-.75.75.753.753 0 0 0 .75.75h13a.753.753 0 0 0 .75-.75z"></path></g></svg>