<svg xmlns="http://www.w3.org/2000/svg" viewBox="0 0 32 32"><g fill="currentColor" class="nc-icon-wrapper"><path d="M29.474 0H2.527C1.597 0 .843.754.843 1.684v4.362c0 .881.359 1.747.982 2.37l9.123 9.123v12.776a1.686 1.686 0 0 0 2.465 1.493l-.009.004-.009.004-.01.004 6.737-3.368c.571-.286.931-.869.931-1.507v-9.408l9.123-9.123c.605-.607.98-1.444.982-2.369V1.682c0-.93-.754-1.684-1.684-1.684zM18.178 15.651c-.304.302-.493.72-.493 1.182v9.073l-3.368 1.684V16.839c0-.464-.189-.885-.493-1.188L4.212 6.046V3.368h23.581l.003 2.666-9.617 9.617z"></path></g></svg>