<svg xmlns="http://www.w3.org/2000/svg" viewBox="0 0 32 32"><g fill="currentColor" class="nc-icon-wrapper"><path d="M29.76 17.71l-.829-3.315a.501.501 0 0 0 .397-.489v-.535c0-1.16-.944-2.104-2.104-2.104H23.45v-1.102c0-.571-.465-1.035-1.036-1.035h-7.018l4.265-1.706a.502.502 0 1 0-.375-.929l.003-.001-3.492 1.397c1.064-.683 2.117-1.434 2.518-1.96.78-1.023.583-2.49-.44-3.271s-2.49-.583-3.271.44c-.57.748-1.322 2.848-1.809 4.329-.487-1.48-1.239-3.581-1.809-4.329-.78-1.023-2.247-1.221-3.271-.44s-1.221 2.247-.44 3.271c.401.526 1.454 1.277 2.518 1.96L6.301 6.494a.5.5 0 0 0-.376.929l.003.001 4.265 1.706H3.175c-.571 0-1.035.464-1.035 1.035v9.086a.5.5 0 1 0 1.002 0v-9.086c0-.018.015-.033.033-.033h19.24c.018 0 .033.015.033.033v9.086a.5.5 0 1 0 1.002 0v-.568h5.914a1.642 1.642 0 0 1 1.554 1.124l.003.012h-1.558-.001a.5.5 0 0 0-.5.5V21.389c0 .866.704 1.57 1.57 1.57H31v2.205h-1.31c-.43-1.243-1.612-2.138-2.999-2.138s-2.569.895-2.999 2.138h-.241v-3.775a.5.5 0 1 0-1.002 0v3.774H12.053c-.43-1.243-1.612-2.138-2.999-2.138s-2.569.895-2.999 2.138h-2.88a.033.033 0 0 1-.033-.033v-1.102h2.171a.5.5 0 1 0 0-1.002H.503a.5.5 0 1 0 0 1.002H2.14v1.102c0 .571.465 1.035 1.035 1.035h2.707l-.001.033c0 1.75 1.424 3.173 3.173 3.173s3.173-1.424 3.173-3.173l-.001-.033h11.292l-.001.033c0 1.75 1.424 3.173 3.173 3.173s3.173-1.424 3.173-3.173l-.001-.033H31.501a.5.5 0 0 0 .5-.5V20.32c0-1.32-.974-2.416-2.24-2.609zM10.806 7.343C8.83 6.115 8.243 5.55 8.07 5.322a1.333 1.333 0 0 1 .248-1.864l.003-.002a1.328 1.328 0 0 1 1.864.248l.002.003c.485.635 1.244 2.774 1.745 4.316a40.356 40.356 0 0 1-1.356-.815l.23.135zm2.849.68c.501-1.541 1.26-3.68 1.745-4.316.445-.584 1.282-.696 1.866-.251s.696 1.282.251 1.866c-.174.228-.76.793-2.736 2.021-.399.248-.788.481-1.126.68zm9.794 4.246h3.774c.608 0 1.102.495 1.102 1.102v.033h-4.877v-1.136zm0 5.411v-3.274h4.452l.818 3.274h-5.271zM9.052 28.369c-1.197 0-2.171-.974-2.171-2.171s.974-2.171 2.171-2.171c1.197 0 2.171.974 2.171 2.171s-.974 2.171-2.171 2.171zm17.637 0c-1.197 0-2.171-.974-2.171-2.171s.974-2.171 2.171-2.171c1.197 0 2.171.974 2.171 2.171s-.974 2.171-2.171 2.171zm4.309-6.414h-.568a.57.57 0 0 1-.568-.568v-.568h1.136v1.136z"></path><path d="M9.052 25.162c-.571 0-1.036.465-1.036 1.035s.465 1.036 1.036 1.036a1.037 1.037 0 0 0 .002-2.07h-.003z"></path><path d="M26.689 25.162a1.036 1.036 0 0 0-.002 2.07h.002a1.036 1.036 0 0 0 .002-2.07h-.002z"></path><path d="M20.81 23.024h-7.482a.5.5 0 1 0 0 1.002h7.482a.5.5 0 1 0 0-1.002z"></path><path d="M7.983 20.887H1.57a.5.5 0 1 0 0 1.002h6.413a.5.5 0 1 0 0-1.002z"></path><path d="M7.983 13.404H5.845h-.001a.5.5 0 0 0-.5.5v4.277a.5.5 0 1 0 1.002 0v-1.637h1.102a.5.5 0 1 0 0-1.002H6.346v-1.136h1.637a.5.5 0 1 0 0-1.002z"></path><path d="M11.926 16.779c.501-.328.834-.895.834-1.538a1.839 1.839 0 0 0-1.837-1.837H9.587h-.001a.5.5 0 0 0-.5.5v4.277a.5.5 0 1 0 1.002 0v-1.102h.834l.92 1.38a.502.502 0 1 0 .832-.558l.001.002-.749-1.124zm-1.003-.702h-.835v-1.67h.835c.46 0 .835.375.835.835s-.375.835-.835.835z"></path><path d="M16 17.68h-1.637v-1.137l.033.002h1.069a.5.5 0 1 0 0-1.002h-1.069l-.033.002v-1.137H16a.5.5 0 1 0 0-1.002h-2.138-.001a.5.5 0 0 0-.5.5V18.184a.5.5 0 0 0 .5.5H16a.5.5 0 1 0 0-1.002z"></path><path d="M19.741 17.68h-1.637v-1.136h.568a.5.5 0 1 0 0-1.002h-.568v-1.136h1.637a.5.5 0 1 0 0-1.002h-2.138-.001a.5.5 0 0 0-.5.5V18.182a.5.5 0 0 0 .5.5h2.139a.5.5 0 1 0 0-1.002z"></path></g></svg>