<svg xmlns="http://www.w3.org/2000/svg" viewBox="0 0 32 32"><g fill="currentColor" class="nc-icon-wrapper"><path d="M15.991 4.956c3.116-2.728 7.681-3.246 11.304-.235 3.965 3.295 4.441 8.915 1.388 12.844-1.163 1.497-3.434 3.746-5.616 5.806a239.414 239.414 0 0 1-5.245 4.795l-.252.22-.021.018c-.106.097-.22.193-.338.285l-.013.01c-.146.11-.355.246-.635.33a1.993 1.993 0 0 1-1.158-.004l.014.004a2.002 2.002 0 0 1-.639-.333l.004.003c-.122-.092-.249-.205-.351-.295l-.021-.018a244.194 244.194 0 0 1-5.619-5.13l.123.115c-2.182-2.06-4.453-4.309-5.616-5.806C.235 13.621.798 8.044 4.674 4.733c3.583-3.061 8.197-2.503 11.317.223zm-1.013 2.758c-2.273-2.658-5.887-3.248-8.572-.954-2.804 2.396-3.182 6.362-1.001 9.169 1.017 1.309 3.137 3.423 5.341 5.503a236.081 236.081 0 0 0 5.003 4.579l.242.211a240.93 240.93 0 0 0 5.368-4.905l-.123.115c2.204-2.08 4.323-4.194 5.341-5.503 2.193-2.822 1.843-6.805-.987-9.157-2.756-2.291-6.322-1.704-8.586.942a1.332 1.332 0 0 1-2.024.002l-.002-.002z"></path></g></svg>