<svg xmlns="http://www.w3.org/2000/svg" viewBox="0 0 24 24"><g fill="none" class="nc-icon-wrapper"><path d="M19.998 9.51a4.552 4.552 0 0 0-1.371-3.129 4.78 4.78 0 0 0-3.228-1.375 4.799 4.799 0 0 0-3.4 1.246 4.834 4.834 0 0 0-6.558.064c-.925.88-1.45 2.1-1.44 3.349.008 1.217.5 2.36 1.383 3.225l6.053 5.887c.153.15.356.223.562.223.194 0 .39-.067.544-.205a.704.704 0 0 0 .019-1.038l-6.053-5.882a3.129 3.129 0 0 1 .04-4.527 3.178 3.178 0 0 1 2.188-.882h.013c1.03 0 2.003.498 2.6 1.331a.792.792 0 0 0 .646.323c.26 0 .503-.12.647-.323a3.201 3.201 0 0 1 4.846-.41 3.136 3.136 0 0 1 .028 4.45c0 .003-.003.003-.003.006l-3.937 3.838c-.3.29-.29.757.022 1.035a.814.814 0 0 0 1.103-.02l3.95-3.853.025-.024a4.501 4.501 0 0 0 1.322-3.31z" fill="#002B44"></path></g></svg>