<svg xmlns="http://www.w3.org/2000/svg" viewBox="0 0 24 24"><g fill="none" class="nc-icon-wrapper"><path fill-rule="evenodd" clip-rule="evenodd" d="M16.234 5.228a.816.816 0 0 1 1.132 0l2.4 2.333a.763.763 0 0 1 0 1.1l-2.4 2.333a.816.816 0 0 1-1.132 0 .763.763 0 0 1 0-1.1L17.27 8.89H8c-1.325 0-2.4 1.045-2.4 2.333a.79.79 0 0 1-.8.778.79.79 0 0 1-.8-.778c0-2.148 1.79-3.889 4-3.889h9.269l-1.035-1.005a.763.763 0 0 1 0-1.1zm-8.468 7.778a.763.763 0 0 1 0 1.1L6.73 15.11H16c1.326 0 2.4-1.045 2.4-2.333a.79.79 0 0 1 .8-.778c.442 0 .8.348.8.778 0 2.147-1.79 3.889-4 3.889H6.731l1.035 1.005a.763.763 0 0 1 0 1.1.816.816 0 0 1-1.132 0l-2.4-2.333a.763.763 0 0 1 0-1.1l2.4-2.333a.816.816 0 0 1 1.132 0z" fill="#002B44"></path></g></svg>