<svg xmlns="http://www.w3.org/2000/svg" viewBox="0 0 32 32"><g fill="currentColor" class="nc-icon-wrapper"><path d="M6.25 6A3.75 3.75 0 0 0 2.5 9.75v12.5A3.75 3.75 0 0 0 6.25 26h19.5a3.75 3.75 0 0 0 3.75-3.75V9.75A3.75 3.75 0 0 0 25.75 6H6.25zM0 9.75A6.25 6.25 0 0 1 6.25 3.5h19.5A6.25 6.25 0 0 1 32 9.75v12.5a6.25 6.25 0 0 1-6.25 6.25H6.25A6.25 6.25 0 0 1 0 22.25V9.75z"></path><path d="M5.38 8.853a1.25 1.25 0 0 1 1.768.027l7.974 8.224c.487.481 1.27.481 1.756 0l7.974-8.224a1.25 1.25 0 0 1 1.794 1.741l-7.982 8.232-.014.014a3.749 3.749 0 0 1-5.303 0l-.014-.014-7.982-8.232a1.25 1.25 0 0 1 .027-1.768z"></path><path d="M13.116 15.098a1.25 1.25 0 0 1 .036 1.767l-6 6.25a1.25 1.25 0 1 1-1.803-1.731l6-6.25a1.25 1.25 0 0 1 1.767-.036z"></path><path d="M18.884 15.098a1.25 1.25 0 0 1 1.767.036l6 6.25a1.25 1.25 0 1 1-1.803 1.731l-6-6.25a1.25 1.25 0 0 1 .036-1.767z"></path></g></svg>