<svg xmlns="http://www.w3.org/2000/svg" viewBox="0 0 32 32"><g fill="currentColor" class="nc-icon-wrapper"><path d="M25.055 3.925c1.235 1.323 2.168 2.803 2.799 4.442s.947 3.321.947 5.046-.316 3.407-.947 5.046a13.65 13.65 0 0 1-2.799 4.442l-8.396 8.798c-.192.201-.412.302-.659.302s-.466-.101-.659-.302l-8.396-8.798c-1.235-1.294-2.168-2.774-2.799-4.442s-.947-3.349-.947-5.046c0-1.696.316-3.378.947-5.046s1.571-3.148 2.819-4.442S9.62 1.654 11.184.992C12.748.331 14.353 0 15.999 0s3.251.331 4.815.992c1.564.661 2.977 1.639 4.239 2.933zm-6.092 12.592c.412-.431.713-.92.905-1.466s.288-1.093.288-1.639-.096-1.093-.288-1.639c-.192-.546-.494-1.035-.905-1.466s-.878-.748-1.399-.949c-.521-.201-1.043-.302-1.564-.302s-1.043.101-1.564.302c-.521.201-.988.518-1.399.949s-.713.92-.905 1.466c-.192.546-.302 1.092-.329 1.639s.082 1.093.329 1.639.549 1.035.905 1.466.823.748 1.399.949c.576.201 1.098.316 1.564.345s.988-.086 1.564-.345 1.043-.575 1.399-.949z"></path></g></svg>