<svg xmlns="http://www.w3.org/2000/svg" viewBox="0 0 32 32"><g fill="currentColor" class="nc-icon-wrapper"><path d="M29.492 15.895c0-.21.084-.699.865-.699h1.334c.577 0 .17-.483.17-.483l-3.637-5.738c-.012-.014-.197-.234-.376.032l-3.594 5.684s-.451.506.167.506h1.349c.402 0 .863.097.863.857 0 6.526-5.333 11.835-11.887 11.835S2.858 22.556 2.858 16.001 8.191 4.113 14.746 4.113c1.752 0 3.439.372 5.014 1.106.191.089.394.134.602.134a1.431 1.431 0 0 0 .605-2.725 14.627 14.627 0 0 0-6.221-1.373C6.615 1.255 0 7.87 0 16.001s6.615 14.746 14.746 14.746c8.099 0 14.713-6.589 14.745-14.688v-.163z"></path><path d="M15.623 14.704c-1.898-.761-2.447-1.221-2.447-2.052 0-.665.504-1.442 1.924-1.442 1.256 0 2.219.495 2.228.499a.703.703 0 0 0 .327.083.661.661 0 0 0 .619-.424l.345-.882a.546.546 0 0 0-.295-.702c-.773-.337-2.285-.597-2.3-.6-.024-.004-.109-.022-.109-.121l-.005-1.279a.71.71 0 0 0-.717-.699h-.619a.71.71 0 0 0-.717.699l.001 1.345c0 .103-.112.148-.152.157-1.908.454-3.1 1.852-3.1 3.615 0 2.197 1.816 3.191 3.778 3.936 1.568.615 2.208 1.24 2.208 2.155 0 .996-.906 1.692-2.204 1.692-1.108 0-2.608-.702-2.623-.71a.71.71 0 0 0-.302-.069.669.669 0 0 0-.633.44l-.33.892c-.117.333.063.603.294.724.921.48 2.703.761 2.782.773.021.003.13.041.13.14v1.339a.71.71 0 0 0 .717.699h.64a.71.71 0 0 0 .717-.699v-1.41c0-.132.097-.143.117-.148 2.032-.456 3.285-1.943 3.285-3.811 0-1.918-1.065-3.157-3.56-4.143z"></path></g></svg>