<svg xmlns="http://www.w3.org/2000/svg" viewBox="0 0 32 32"><g fill="currentColor" class="nc-icon-wrapper"><path d="M6 15c-.69 0-1.25.56-1.25 1.25v4.5a1.25 1.25 0 0 0 2.5 0v-4.5C7.25 15.56 6.69 15 6 15zm-3.75 1.25a3.75 3.75 0 0 1 7.5 0v4.5a3.75 3.75 0 0 1-7.5 0v-4.5z"></path><path d="M26 15c-.69 0-1.25.56-1.25 1.25v4.5a1.25 1.25 0 0 0 2.5 0v-4.5c0-.69-.56-1.25-1.25-1.25zm-3.75 1.25a3.75 3.75 0 0 1 7.5 0v4.5a3.75 3.75 0 0 1-7.5 0v-4.5z"></path><path d="M16 2.5C9.787 2.5 4.75 7.537 4.75 13.75v2.5a1.25 1.25 0 0 1-2.5 0v-2.5C2.25 6.156 8.406 0 16 0s13.75 6.156 13.75 13.75v2.5a1.25 1.25 0 0 1-2.5 0v-2.5C27.25 7.537 22.213 2.5 16 2.5z"></path><path d="M28.5 19.5c.69 0 1.25.56 1.25 1.25v2.5a6.25 6.25 0 0 1-6.25 6.25h-5a1.25 1.25 0 0 1 0-2.5h5a3.75 3.75 0 0 0 3.75-3.75v-2.5c0-.69.56-1.25 1.25-1.25z"></path><path d="M16 27a1.25 1.25 0 1 0 0 2.5 1.25 1.25 0 0 0 0-2.5zm-3.75 1.25a3.75 3.75 0 1 1 7.5 0 3.75 3.75 0 0 1-7.5 0z"></path></g></svg>