<svg xmlns="http://www.w3.org/2000/svg" viewBox="0 0 32 32"><g fill="currentColor" class="nc-icon-wrapper"><path d="M25.6 15.533h-8.533c-.333 0-.533.2-.533.533v4.8c0 .333.2.533.533.533H25.6c.333 0 .533-.2.533-.533v-4.8c0-.333-.2-.533-.533-.533zm-.533 4.8H17.6V16.6h7.467v3.733zm-22.4-5.866h4.267c.333 0 .533-.2.533-.533s-.2-.533-.533-.533H2.667c-.333 0-.533.2-.533.533s.2.533.533.533zM13.333 13.4H9.066c-.333 0-.533.2-.533.533s.2.533.533.533h4.267c.333 0 .533-.2.533-.533s-.2-.533-.533-.533zM9.6 15.533H2.667c-.333 0-.533.2-.533.533s.2.533.533.533H9.6c.333 0 .533-.2.533-.533s-.2-.533-.533-.533zm3.733 0h-1.6c-.333 0-.533.2-.533.533s.2.533.533.533h1.6c.333 0 .533-.2.533-.533s-.2-.533-.533-.533zm18.2-6.6c-.4-.467-.867-.733-1.467-.8L28.799 8V5.467c0-1.2-1-2.133-2.133-2.133H2.133C.933 3.334 0 4.267 0 5.467v17c0 .933.667 1.8 1.533 2.067 0 1.067.8 2 1.867 2.133l24.867 2.667c1.067 0 2-.8 2.133-1.8L32 10.467c.067-.533-.133-1.067-.467-1.533zM1.067 5.467c0-.6.467-1.067 1.067-1.067h24.533c.6 0 1.067.467 1.067 1.067V6H1.067v-.533zm0 1.6h26.667v3.2H1.067v-3.2zm0 15.4v-11.2h26.667V22.4c0 .6-.467 1.067-1.067 1.067H2.134c-.6 0-1.067-.467-1.067-1zm29.866-12.2l-1.6 17.067c-.067.6-.6 1-1.2.933L3.6 25.534c-.533-.067-.933-.467-.933-.933h24c1.2 0 2.133-.933 2.133-2.133V9.001l1.2.133c.267 0 .533.133.667.4.2.2.333.467.267.733z"></path></g></svg>