<svg xmlns="http://www.w3.org/2000/svg" viewBox="0 0 32 32"><g fill="currentColor" class="nc-icon-wrapper"><path d="M17 1.25C17 .56 17.56 0 18.25 0 25.833 0 32 6.168 32 13.75a1.25 1.25 0 0 1-2.5 0c0-6.202-5.048-11.25-11.25-11.25-.69 0-1.25-.56-1.25-1.25z"></path><path d="M17 6.25c0-.69.56-1.25 1.25-1.25C23.076 5 27 8.924 27 13.75a1.25 1.25 0 0 1-2.5 0 6.259 6.259 0 0 0-6.25-6.25c-.69 0-1.25-.56-1.25-1.25z"></path><path d="M17 11.25c0-.69.56-1.25 1.25-1.25A3.75 3.75 0 0 1 22 13.75a1.25 1.25 0 0 1-2.5 0c0-.69-.56-1.25-1.25-1.25S17 11.94 17 11.25z"></path><path d="M6.187 1.582c.332 0 .649.132.884.366l5.303 5.303a3.75 3.75 0 0 1 0 5.303l-1.563 1.563c.988 1.237 2.103 2.513 3.33 3.741s2.503 2.341 3.741 3.33l1.562-1.562a3.75 3.75 0 0 1 5.303 0l5.303 5.303a1.25 1.25 0 0 1 0 1.768l-3.475 3.475a6.262 6.262 0 0 1-7.775.855c-2.666-1.68-6.447-4.35-9.963-7.865S2.651 15.865.971 13.199a6.259 6.259 0 0 1 .855-7.775l3.475-3.475a1.25 1.25 0 0 1 .884-.366zm0 3.018L3.596 7.191a3.759 3.759 0 0 0-.507 4.674c1.619 2.57 4.177 6.187 7.518 9.528s6.958 5.899 9.528 7.518a3.759 3.759 0 0 0 4.674-.507l2.592-2.591-4.419-4.42a1.25 1.25 0 0 0-1.768 0l-2.344 2.344a1.25 1.25 0 0 1-1.643.109c-1.569-1.2-3.244-2.614-4.851-4.221s-3.023-3.284-4.221-4.851a1.25 1.25 0 0 1 .109-1.643l2.345-2.345a1.25 1.25 0 0 0 0-1.768L6.19 4.599z"></path></g></svg>