<svg xmlns="http://www.w3.org/2000/svg" viewBox="0 0 32 32"><g fill="currentColor" class="nc-icon-wrapper"><path d="M13.774 0C6.174 0 0 6.173 0 13.772s6.174 13.772 13.774 13.772c7.6 0 13.774-6.173 13.774-13.772S21.374 0 13.774 0zm0 25.114c-6.255 0-11.343-5.088-11.343-11.342S7.519 2.43 13.774 2.43s11.343 5.088 11.343 11.342-5.088 11.342-11.343 11.342z"></path><path d="M31.648 29.926l-4.861-4.861c-.47-.47-1.248-.47-1.718 0s-.47 1.248 0 1.717l4.861 4.861c.243.243.551.356.859.356s.616-.113.859-.356c.47-.47.47-1.248 0-1.718z"></path><path d="M18.635 12.557h-3.646V8.911c0-.664-.551-1.215-1.215-1.215s-1.215.551-1.215 1.215v3.646H8.913c-.664 0-1.215.551-1.215 1.215s.551 1.215 1.215 1.215h3.646v3.646c0 .664.551 1.215 1.215 1.215s1.215-.551 1.215-1.215v-3.646h3.646c.664 0 1.215-.551 1.215-1.215s-.551-1.215-1.215-1.215z"></path></g></svg>