<svg xmlns="http://www.w3.org/2000/svg" viewBox="0 0 48 32"><g fill="currentColor" class="nc-icon-wrapper"><path d="M20.15 12.118h-7.621l-.567-10.619c-.028-.516-.377-.962-.878-1.118s-1.047.01-1.371.417L.265 12.59c-.176.219-.271.49-.271.77v17.377c0 .329.133.645.369.878s.557.364.891.364H20.15c.334 0 .655-.131.891-.364s.369-.549.369-.878V13.36c0-.329-.133-.645-.369-.878s-.557-.363-.891-.363z"></path><path d="M46.605 12.118h-7.622l-.567-10.619c-.028-.516-.377-.962-.878-1.118s-1.047.01-1.371.417L26.719 12.59c-.176.219-.271.49-.271.77v17.377c0 .329.133.645.369.878s.557.364.891.364h18.896c.334 0 .654-.131.891-.364s.369-.549.369-.878V13.36c0-.329-.133-.645-.369-.878s-.557-.363-.891-.363z"></path></g></svg>