<svg xmlns="http://www.w3.org/2000/svg" viewBox="0 0 32 32"><g fill="currentColor" class="nc-icon-wrapper"><path d="M16 24.75A.625.625 0 1 1 16 26a.625.625 0 0 1 0-1.25z"></path><path d="M22.438 19.75a3.75 3.75 0 1 0 7.5 0 3.75 3.75 0 0 0-7.5 0zm3.75 2.5a2.5 2.5 0 0 1 0-5 2.5 2.5 0 0 1 0 5z"></path><path d="M0 30.375c0 .345.28.625.625.625h8.5a.625.625 0 0 0 0-1.25H1.25v-.625c0-2.387 2.116-4.375 4.563-4.375 1.502 0 2.984.751 3.763 1.853a.625.625 0 0 0 1.021-.721C9.566 24.422 7.688 23.5 5.813 23.5 2.737 23.5 0 25.989 0 29.125v1.25z"></path><path d="M22.25 30.375c0 .345.28.625.625.625h8.5c.345 0 .625-.28.625-.625v-1.25c0-3.136-2.736-5.625-5.812-5.625-1.875 0-3.752.922-4.784 2.382a.625.625 0 0 0 1.021.721c.779-1.102 2.261-1.853 3.763-1.853 2.446 0 4.563 1.988 4.563 4.375v.625h-7.875a.625.625 0 0 0-.625.625z"></path><path d="M2.063 19.75a3.75 3.75 0 1 0 7.5 0 3.75 3.75 0 0 0-7.5 0zm3.75 2.5a2.5 2.5 0 0 1 0-5 2.5 2.5 0 0 1 0 5z"></path><path d="M11 17.25a5 5 0 1 0 10.001-.001A5 5 0 0 0 11 17.25zM16 21a3.75 3.75 0 1 1 0-7.5 3.75 3.75 0 0 1 0 7.5z"></path><path d="M12.907 10.476c.192.14.448.158.658.048l2.412-1.268 1.491.784.921.484a.624.624 0 0 0 .907-.659l-.461-2.687 1.952-1.902a.625.625 0 0 0-.347-1.066l-2.696-.391-1.207-2.468a.626.626 0 0 0-1.122 0l-1.207 2.468-2.696.391a.627.627 0 0 0-.347 1.066l1.952 1.903-.461 2.687a.624.624 0 0 0 .249.611zm4.944-1.648l-1.583-.832a.624.624 0 0 0-.582 0l-1.582.832.302-1.762a.621.621 0 0 0-.18-.553l-1.28-1.248 1.769-.257a.626.626 0 0 0 .472-.344l.79-1.616.79 1.616a.625.625 0 0 0 .472.344l1.769.257-1.28 1.248a.626.626 0 0 0-.18.553l.303 1.762z"></path><path d="M24.288 13.679c.192.14.448.158.658.048l1.634-.859 1.634.858a.624.624 0 0 0 .907-.659l-.312-1.819 1.322-1.289a.625.625 0 0 0-.347-1.066l-1.827-.265-.816-1.655a.625.625 0 0 0-1.121 0l-.817 1.655-1.827.265a.627.627 0 0 0-.347 1.066l1.322 1.289-.312 1.819a.625.625 0 0 0 .249.611zm1.197-1.648l.153-.895a.621.621 0 0 0-.18-.553l-.65-.634.899-.131a.625.625 0 0 0 .471-.342l.402-.814.402.814a.625.625 0 0 0 .471.342l.899.131-.65.634a.628.628 0 0 0-.18.553l.153.895-.804-.422a.622.622 0 0 0-.581 0l-.804.423z"></path><path d="M3.038 13.679c.192.14.448.158.658.048l1.634-.859 1.634.858a.624.624 0 0 0 .907-.659l-.312-1.819 1.322-1.289a.625.625 0 0 0-.347-1.066l-1.827-.265-.816-1.655a.625.625 0 0 0-1.121 0l-.817 1.655-1.827.265a.627.627 0 0 0-.347 1.066l1.322 1.289-.312 1.819a.625.625 0 0 0 .249.611zm1.197-1.648l.154-.895a.621.621 0 0 0-.18-.553l-.65-.634.899-.131a.625.625 0 0 0 .471-.342l.402-.814.402.814a.625.625 0 0 0 .471.342l.899.131-.65.634a.628.628 0 0 0-.18.553l.153.895-.804-.422a.622.622 0 0 0-.581 0l-.804.423z"></path><path d="M8.5 30.375c0 .345.28.625.625.625h13.75c.345 0 .625-.28.625-.625v-.625a7.48 7.48 0 0 0-1.048-3.827 7.524 7.524 0 0 0-1.148-1.476 7.475 7.475 0 0 0-5.303-2.197 7.498 7.498 0 0 0-6.452 3.673 7.47 7.47 0 0 0-1.048 3.827v.625zm1.25-.625A6.247 6.247 0 0 1 16 23.5c1.726 0 3.288.699 4.419 1.831a6.222 6.222 0 0 1 1.831 4.419H9.75z"></path><path d="M20.221 28.439a.625.625 0 0 0 .296-.833 5.027 5.027 0 0 0-1.778-2.038.626.626 0 0 0-.687 1.045 3.778 3.778 0 0 1 1.336 1.531.625.625 0 0 0 .833.296z"></path></g></svg>