<svg xmlns="http://www.w3.org/2000/svg" viewBox="0 0 32 32"><g fill="currentColor" class="nc-icon-wrapper"><path d="M30.679 8.955a1.107 1.107 0 0 1 0 1.563l-6.585 6.632c-.429.432-1.124.432-1.552 0s-.429-1.131 0-1.563l5.809-5.85-5.809-5.85c-.429-.432-.429-1.131 0-1.563s1.124-.432 1.552 0l6.585 6.632z"></path><path d="M31 9.731c0 .61-.491 1.105-1.098 1.105H10.878c-.606 0-1.098-.495-1.098-1.105s.491-1.105 1.098-1.105h19.024c.606 0 1.098.495 1.098 1.105z"></path><path d="M9.459 14.85a1.107 1.107 0 0 1 0 1.563l-5.809 5.85 5.809 5.85c.429.432.429 1.131 0 1.563s-1.123.432-1.552 0l-6.585-6.632a1.108 1.108 0 0 1 0-1.564l6.585-6.631a1.088 1.088 0 0 1 1.552 0z"></path><path d="M22.22 22.257v.005a1.1 1.1 0 0 1-1.098 1.1H2.098c-.606 0-1.098-.495-1.098-1.105s.491-1.105 1.098-1.105h19.024c.606 0 1.098.495 1.098 1.105z"></path></g></svg>