<svg xmlns="http://www.w3.org/2000/svg" viewBox="0 0 16 16"><g fill="none" class="nc-icon-wrapper"><path d="M6.887 0A6.891 6.891 0 0 0 0 6.886c0 3.8 3.087 6.886 6.887 6.886 3.8 0 6.887-3.086 6.887-6.886 0-3.8-3.087-6.886-6.887-6.886zm0 12.557a5.677 5.677 0 0 1-5.672-5.67 5.677 5.677 0 0 1 5.672-5.672 5.678 5.678 0 0 1 5.672 5.671 5.678 5.678 0 0 1-5.672 5.671z" fill="currentColor"></path><path d="M15.824 14.963l-2.43-2.43a.611.611 0 0 0-.86 0 .611.611 0 0 0 0 .858l2.43 2.43a.601.601 0 0 0 .43.179.601.601 0 0 0 .43-.178.611.611 0 0 0 0-.859z" fill="currentColor"></path><path d="M9.318 6.278H7.495V4.456a.612.612 0 0 0-.608-.608.612.612 0 0 0-.608.608v1.822H4.456a.612.612 0 0 0-.607.608c0 .332.275.608.607.608H6.28v1.822c0 .333.276.608.608.608a.612.612 0 0 0 .608-.608V7.494h1.823a.612.612 0 0 0 .607-.608.612.612 0 0 0-.607-.608z" fill="currentColor"></path></g></svg>