<svg xmlns="http://www.w3.org/2000/svg" viewBox="0 0 32 32"><g fill="currentColor" class="nc-icon-wrapper"><path d="M31.448 9.189l-7.494-7.506a1.896 1.896 0 0 0-2.456-.196l-.208.119-9.643 1.326a2.69 2.69 0 0 0-.639.101l-.338-.318-.043-.038a1.899 1.899 0 0 0-2.581.099L.553 10.281a1.904 1.904 0 0 0-.1 2.572l3.215 3.589c.104.434.247.881.426 1.34a2.397 2.397 0 0 0 .149 3.22l.005.004.01.01c.442.44 1.025.685 1.646.696a2.38 2.38 0 0 0 .679 1.981l.01.01a2.378 2.378 0 0 0 1.917.695l.022.024c-.001.032-.005.065-.005.097 0 .638.248 1.238.699 1.69l.01.01.004.004a2.378 2.378 0 0 0 1.693.701h.005l.228.228c.027.599.269 1.158.696 1.585l.008.008.008.008a2.38 2.38 0 0 0 1.58.691l.631.631a2.716 2.716 0 0 0 1.933.799 2.72 2.72 0 0 0 2.685-2.235l.396.396a2.825 2.825 0 0 0 1.983.823 2.71 2.71 0 0 0 2.67-2.238c.506.433 1.16.677 1.825.677a2.71 2.71 0 0 0 1.676-.58 2.737 2.737 0 0 0 .355-3.957 2.71 2.71 0 0 0 2.239-2.525 2.738 2.738 0 0 0-.794-2.093l-1.016-1.016c.037-.037.073-.075.105-.117 1.903-2.425 2.928-4.229 3.305-5.825.03-.052.056-.106.078-.162l.21-.529a1.905 1.905 0 0 0-.29-2.306zM5.947 20.421a1.1 1.1 0 0 1-.778-.322l-.012-.012a1.1 1.1 0 0 1 0-1.557l.861-.861a1.096 1.096 0 0 1 1.557 0l.011.012a1.1 1.1 0 0 1 0 1.557l-.861.861a1.097 1.097 0 0 1-.778.322zm3.121 2.372a1.099 1.099 0 0 1-1.558 0l-.011-.012a1.1 1.1 0 0 1 0-1.557l2.037-2.037a1.099 1.099 0 0 1 1.558 0l.011.011a1.1 1.1 0 0 1 0 1.557l-2.037 2.037zm2.643 2.516a1.097 1.097 0 0 1-1.556 0l-.012-.012a1.1 1.1 0 0 1 0-1.557l1.318-1.319a1.101 1.101 0 0 1 1.557 0l.012.012a1.1 1.1 0 0 1 0 1.557l-1.319 1.319zm1.855 2.847a1.1 1.1 0 0 1-.778-.322l-.012-.011a1.1 1.1 0 0 1 0-1.557l.6-.6a1.104 1.104 0 0 1 1.558 0l.011.012a1.1 1.1 0 0 1 0 1.557l-.6.6a1.098 1.098 0 0 1-.779.322zm3.589.877a1.438 1.438 0 0 1-1.133.548c-.369 0-.739-.14-1.019-.42l-.111-.111c.131-.087.253-.188.367-.301l.6-.599c.422-.422.651-.965.692-1.518l.461.461c.523.522.603 1.363.144 1.942zm10.987-8.975c.6.6.558 1.61-.127 2.152-.257.203-.564.3-.873.3-.388 0-.778-.154-1.069-.445l-5.227-5.227a.691.691 0 0 0-.982 0 .703.703 0 0 0 0 .995l6.719 6.719c.6.6.558 1.61-.127 2.152-.257.203-.564.3-.873.3-.388 0-.778-.154-1.069-.445l-6.688-6.688a.703.703 0 0 0-.996 0 .693.693 0 0 0 0 .981l5.258 5.258c.6.6.558 1.61-.127 2.152-.257.203-.564.3-.873.3-.388 0-.778-.154-1.069-.445l-5.434-5.434a2.38 2.38 0 0 0-.64-1.168l-.012-.012a2.377 2.377 0 0 0-1.37-.677 2.384 2.384 0 0 0-.542-2.546l-.004-.004-.01-.01a2.377 2.377 0 0 0-1.69-.699c-.423 0-.828.111-1.185.316a2.378 2.378 0 0 0-.625-1.116l-.008-.008a2.378 2.378 0 0 0-1.701-.71c-.64 0-1.241.249-1.693.701l-.004.004a8.7 8.7 0 0 1-.21-.771.621.621 0 0 0-.112-.245l-3.362-3.754a.605.605 0 0 1 .051-.796l7.494-7.505a.605.605 0 0 1 .823-.032l.059.056a2.711 2.711 0 0 0-.814 1.937 2.723 2.723 0 0 0 2.71 2.72l4.774.061 11.628 11.628zm2.442-9.16l-.258.649a.615.615 0 0 0-.112.245c-.364 1.671-1.648 3.588-3.086 5.421L17.063 7.144l-5.313-.067c-.785 0-1.427-.642-1.427-1.427s.642-1.427 1.427-1.427l9.963-1.37.003-.001.5-.285a.602.602 0 0 1 .823.032l7.494 7.505a.607.607 0 0 1 .052.796z"></path></g></svg>