<svg xmlns="http://www.w3.org/2000/svg" viewBox="0 0 32 32"><g fill="currentColor" class="nc-icon-wrapper"><path d="M24.727 7.619h-2.182c0-1.667-.69-3.266-1.917-4.445S17.736 1.333 16 1.333s-3.401.662-4.628 1.841a6.165 6.165 0 0 0-1.917 4.445H7.273c-.868 0-1.7.331-2.314.921S4 9.929 4 10.762v14.667c.002 1.389.577 2.72 1.599 3.702s2.409 1.534 3.855 1.536h13.091c1.446-.002 2.833-.554 3.855-1.536s1.598-2.313 1.599-3.702V10.762c0-.834-.345-1.633-.959-2.222s-1.446-.921-2.314-.921zM16 3.429c1.157 0 2.267.442 3.086 1.227s1.278 1.852 1.278 2.963h-8.727c0-1.111.46-2.177 1.278-2.963s1.928-1.227 3.086-1.227zm9.818 22c0 .834-.345 1.633-.959 2.222s-1.446.921-2.314.921H9.454c-.868 0-1.7-.331-2.314-.921s-.959-1.389-.959-2.222V10.762c0-.278.115-.544.32-.741s.482-.307.771-.307h2.182v2.095c0 .278.115.544.32.741s.482.307.771.307c.289 0 .567-.11.771-.307s.32-.463.32-.741V9.714h8.727v2.095c0 .278.115.544.32.741s.482.307.771.307.567-.11.771-.307c.205-.196.319-.463.319-.741V9.714h2.182c.289 0 .567.11.771.307s.319.463.319.741v14.667z"></path></g></svg>