<svg xmlns="http://www.w3.org/2000/svg" viewBox="0 0 32 32"><g fill="currentColor" class="nc-icon-wrapper"><path d="M27 9a.5.5 0 0 1-1 0 .5.5 0 0 1 1 0z"></path><path d="M23.5 9a.5.5 0 0 1-1 0 .5.5 0 0 1 1 0z"></path><path d="M20.5 9a.5.5 0 0 1-1 0 .5.5 0 0 1 1 0z"></path><path d="M23.25 2.5C19.804 2.5 17 5.295 17 8.731c0 1.246.368 2.441 1.068 3.472l-1.041 3.113c-.067.199-.006.419.153.556s.386.166.574.072l3.013-1.502c.73.327 1.581.518 2.478.518h.006c3.446 0 6.25-2.795 6.25-6.231s-2.804-6.231-6.25-6.231zm0 11.423a5.141 5.141 0 0 1-2.296-.537l.03.014a.52.52 0 0 0-.463.004l.003-.001-2.112 1.053.727-2.173a.51.51 0 0 0-.076-.474l.001.001a5.097 5.097 0 0 1-1.022-3.073v-.006c0-2.863 2.336-5.192 5.208-5.192s5.208 2.329 5.208 5.192-2.336 5.192-5.208 5.192z"></path><path d="M13 19.5a.5.5 0 0 1-1 0 .5.5 0 0 1 1 0z"></path><path d="M20.683 19.224a.522.522 0 0 0-.741 0l-2.513 2.508c-.357.356-.907.429-1.309.173a19.62 19.62 0 0 1-1.715-1.226l.039.03c-.226-.18-.556-.142-.737.084s-.143.555.084.735c.511.41 1.086.824 1.683 1.209l.082.05c.813.519 1.913.386 2.615-.315l2.142-2.138 4.922 4.914-1.939 1.936c-1.252 1.25-3.135 1.62-4.685.92-8.245-3.72-12.535-10.026-14.682-14.662-.737-1.592-.383-3.509.881-4.771l1.91-1.908 4.923 4.914-2.142 2.138c-.702.701-.834 1.799-.315 2.611.419.651.814 1.201 1.234 1.73l-.034-.044a.523.523 0 0 0 .822-.65l.001.001a19.35 19.35 0 0 1-1.093-1.525l-.047-.077c-.257-.401-.184-.951.173-1.307l2.512-2.508a.522.522 0 0 0 0-.74L7.09 5.652a.522.522 0 0 0-.741 0L4.068 7.93c-1.574 1.571-2.012 3.962-1.091 5.951 3.057 6.6 8.238 12.034 15.201 15.176 1.957.883 4.309.413 5.858-1.134l2.31-2.306a.522.522 0 0 0 0-.74l-5.664-5.654z"></path></g></svg>