<svg xmlns="http://www.w3.org/2000/svg" viewBox="0 0 32 32"><g fill="currentColor" class="nc-icon-wrapper"><path d="M7.439 27.72a2.236 2.236 0 0 1-3.16-3.16L17.04 11.799c.289-.289.402-.711.297-1.106a5.61 5.61 0 0 1 1.454-5.425 5.605 5.605 0 0 1 4.726-1.593l-3.16 3.16a1.145 1.145 0 0 0 0 1.62l3.187 3.187a1.147 1.147 0 0 0 1.621 0l3.16-3.16a5.613 5.613 0 0 1-7.018 6.18 1.148 1.148 0 0 0-1.106.297L7.44 27.72zm-4.78 1.621a4.525 4.525 0 0 0 6.401 0l12.317-12.317a7.91 7.91 0 0 0 8.52-11.193c-.16-.336-.474-.573-.84-.635s-.741.056-1.004.319l-3.698 3.698-1.566-1.566 3.698-3.698a1.145 1.145 0 0 0-.316-1.844 7.908 7.908 0 0 0-11.193 8.519L2.661 22.941a4.526 4.526 0 0 0 0 6.401z"></path><path d="M22.94 29.341a4.527 4.527 0 0 0 6.401-6.401l-7.751-7.751a1.146 1.146 0 0 0-1.62 1.621l7.751 7.751a2.234 2.234 0 1 1-3.16 3.16L16.81 19.97a1.147 1.147 0 0 0-1.621 1.621l7.751 7.751z"></path><path d="M14.42 14.42a1.146 1.146 0 0 0 0-1.62L3.289 1.669a1.146 1.146 0 0 0-1.62 1.62L12.8 14.42a1.146 1.146 0 0 0 1.62 0z"></path></g></svg>