<svg xmlns="http://www.w3.org/2000/svg" viewBox="0 0 32 32"><g fill="currentColor" class="nc-icon-wrapper"><path d="M6.08 3.2A2.88 2.88 0 0 0 3.2 6.08v15.36c0 1.5 1.147 2.732 2.611 2.868A3.847 3.847 0 0 0 9.6 27.519a3.843 3.843 0 0 0 3.784-3.176l.003-.023h2.666c.318 1.827 1.892 3.199 3.787 3.199s3.469-1.372 3.784-3.176l.003-.023h2.293a2.88 2.88 0 0 0 2.88-2.88v-6.928c0-.426-.095-.848-.277-1.233l-2.175-4.592a2.885 2.885 0 0 0-2.603-1.647H21.76v-.96a2.88 2.88 0 0 0-2.88-2.88H6.08zm17.381 19.2a3.877 3.877 0 0 0-1.683-2.036l-.018-.01V15.36h5.12v3.84h-1.6a.96.96 0 0 0 0 1.92h1.6v.32c0 .53-.43.96-.96.96h-2.459zm-3.621-2.56h-.001a3.842 3.842 0 0 0-3.612 2.533l-.008.027h-2.997a3.849 3.849 0 0 0-3.621-2.561 3.842 3.842 0 0 0-3.611 2.529l-.008.027a.961.961 0 0 1-.86-.955V6.08c0-.53.43-.96.96-.96h12.8c.53 0 .96.43.96.96v13.76zm1.92-10.88h1.985c.371 0 .709.214.868.549l1.862 3.931H21.76V8.96zM9.6 25.6a1.92 1.92 0 0 1 .001-3.842h.001a1.92 1.92 0 0 1-.001 3.842H9.6zm12.16-1.92a1.92 1.92 0 0 1-3.842-.001v-.001a1.92 1.92 0 0 1 3.842.001v.001z"></path></g></svg>