<svg xmlns="http://www.w3.org/2000/svg" viewBox="0 0 32 32"><g fill="currentColor" class="nc-icon-wrapper"><path d="M26.805 9.267c.038.156.058.407.058.757a17.252 17.252 0 0 1-1.292 6.535l.042-.115.041-.117.041-.118a19.763 19.763 0 0 1-3.394 5.682l.022-.027.023-.027.023-.028c-1.399 1.673-3.228 3.031-5.483 4.083-2.255 1.05-4.745 1.574-7.467 1.574l-.135.001H9.23a16.758 16.758 0 0 1-9.388-2.859l.06.038.126.079c.427.038.913.058 1.457.058 2.839 0 5.387-.875 7.642-2.624l-.087.001h-.019a5.835 5.835 0 0 1-3.554-1.2l.044.032a6.383 6.383 0 0 1-2.06-2.899l-.014-.045-.026-.09c.388.038.757.058 1.109.058.542 0 1.088-.058 1.632-.175a5.943 5.943 0 0 1-2.544-1.194l.011.009.024.018a6.619 6.619 0 0 1-1.698-1.996l-.017-.034-.017-.034-.017-.035a5.892 5.892 0 0 1-.642-2.695v-.021.001-.144c.78.479 1.716.778 2.719.817h.022C2.165 11.289 1.252 9.578 1.252 7.4c0-1.088.292-2.121.875-3.093 2.994 3.753 7.491 6.198 12.564 6.416l.035.001a7.86 7.86 0 0 1-.115-1.358v-.019.001-.024c0-1.673.582-3.11 1.749-4.316 1.205-1.205 2.645-1.809 4.316-1.809 1.79 0 3.285.64 4.493 1.924a12.39 12.39 0 0 0 4.078-1.549l-.056.031-.116.063a6.195 6.195 0 0 1-2.603 3.338l-.026.015-.054.03c1.365-.189 2.6-.561 3.745-1.093l-.081.034-.082.034-.083.033a13.777 13.777 0 0 1-2.987 3.134l-.033.024-.034.025-.035.025z"></path></g></svg>