<svg xmlns="http://www.w3.org/2000/svg" viewBox="0 0 32 32"><g fill="currentColor" class="nc-icon-wrapper"><path d="M16.71 8.29a1.004 1.004 0 0 0-.33-.21 1 1 0 0 0-.76 0 1.004 1.004 0 0 0-.33.21l-4 4a1.005 1.005 0 0 0 1.42 1.42l2.29-2.3V23a.997.997 0 0 0 1 1 .997.997 0 0 0 1-1V11.41l2.29 2.3a1.007 1.007 0 0 0 .71.296.998.998 0 0 0 .71-.296.995.995 0 0 0 0-1.42l-4-4z"></path><path d="M16 1A15.003 15.003 0 0 0 1.287 18.927a15.003 15.003 0 0 0 27.184 5.406 15.003 15.003 0 0 0-1.865-18.941A15 15 0 0 0 15.999.999zm0 28c-2.571 0-5.085-.762-7.222-2.191S4.974 23.35 3.99 20.975A13.004 13.004 0 0 1 6.808 6.808a13.002 13.002 0 0 1 20.001 1.97 12.995 12.995 0 0 1-1.617 16.414A13 13 0 0 1 16 29z"></path></g></svg>