<svg xmlns="http://www.w3.org/2000/svg" viewBox="0 0 32 32"><g fill="currentColor" class="nc-icon-wrapper"><path d="M28.5 13.88a2.052 2.052 0 0 0-.704-1.517l-.002-.002-2.309-1.971V8.316a1.814 1.814 0 0 0-1.808-1.808h-2.744l-2.82-2.404c-.556-.472-1.283-.759-2.076-.759s-1.52.287-2.081.763l.005-.004-2.82 2.404H8.32a1.814 1.814 0 0 0-1.808 1.808v2.137l-2.31 1.971c-.428.37-.698.912-.704 1.517v12.691a2.065 2.065 0 0 0 2.064 2.02H26.42a2.09 2.09 0 0 0 1.511-.643l.001-.001c.347-.355.563-.84.567-1.375V13.879zm-9.08 6.52l8.154-6.717c.012.065-.011 13.245-.068 13.376L19.42 20.4zm7.648-7.471l-1.582 1.303v-2.653l1.582 1.35zM14.549 4.793c.399-.338.92-.544 1.489-.544s1.09.206 1.492.546l-.003-.003 2.013 1.717h-7.005l2.014-1.717zm-6.227 2.62h15.356a.906.906 0 0 1 .904.904v6.66l-7.281 5.998c-.354.286-.809.459-1.305.459s-.951-.173-1.309-.462l.004.003-7.273-5.993V8.317a.906.906 0 0 1 .904-.904zM4.494 27.059c-.057-.131-.078-13.283-.059-13.364l8.137 6.705-8.078 6.659zm2.02-12.822l-1.547-1.275 1.547-1.32v2.595zM5.168 27.674l8.115-6.689.834.687c.507.419 1.164.673 1.88.673s1.373-.254 1.885-.677l-.005.004.834-.687 8.122 6.689c-.13.047-21.534.047-21.664 0z"></path><path d="M16 17.189a4.367 4.367 0 0 0 4.363-4.364c-.24-5.789-8.488-5.787-8.727 0A4.373 4.373 0 0 0 16 17.189h.001zm0-7.824a3.462 3.462 0 0 1 3.459 3.46c-.174 4.584-6.746 4.583-6.92 0a3.464 3.464 0 0 1 3.459-3.46z"></path><path d="M14.534 13.91a.455.455 0 0 0 .688.218l-.001.001 2.645-1.87a.45.45 0 0 0-.183-.814h-.003a.454.454 0 0 0-.338.077l.001-.001-2.156 1.525-.366-1.04a.451.451 0 0 0-.577-.267l.003-.001a.45.45 0 0 0-.278.571l-.001-.003.564 1.605z"></path><path d="M15.971 25.752H9.207a.45.45 0 0 0-.443.45v.003a.45.45 0 0 0 .443.45h6.764a.453.453 0 0 0 .443-.451v-.002a.45.45 0 0 0-.443-.45z"></path><path d="M19.585 25.752h-1.459a.454.454 0 0 0-.443.452v.001a.45.45 0 0 0 .443.45h1.459a.454.454 0 0 0 .443-.452v-.001a.45.45 0 0 0-.443-.45z"></path></g></svg>