<svg xmlns="http://www.w3.org/2000/svg" viewBox="0 0 24 24"><g fill="none" class="nc-icon-wrapper"><path d="M9 12c0 1.654 1.346 3 3 3s3-1.346 3-3-1.346-3-3-3-3 1.346-3 3zm4.627 0a1.627 1.627 0 0 1-3.254 0 1.627 1.627 0 0 1 3.254 0z" fill="#002B44"></path><path d="M21.86 11.533a20.183 20.183 0 0 0-2.823-3.235c-1.019-.945-2.061-1.7-3.097-2.245C14.61 5.354 13.284 5 12 5c-1.284 0-2.61.354-3.94 1.053-1.036.545-2.078 1.3-3.097 2.245a20.185 20.185 0 0 0-2.823 3.235.846.846 0 0 0 0 .934 20.18 20.18 0 0 0 2.823 3.235c1.019.945 2.061 1.7 3.097 2.245C9.39 18.646 10.716 19 12 19c1.38 0 2.803-.408 4.232-1.212a.835.835 0 0 0 .317-1.106.765.765 0 0 0-1.059-.33c-1.198.674-2.373 1.016-3.49 1.016-3.835 0-7.19-3.985-8.24-5.369C4.809 10.615 8.156 6.632 12 6.632c3.836 0 7.191 3.986 8.24 5.37-.353.467-.97 1.231-1.782 2.04a.842.842 0 0 0-.027 1.154.758.758 0 0 0 1.105.027c1.425-1.419 2.288-2.702 2.324-2.756a.846.846 0 0 0 0-.934z" fill="#002B44"></path></g></svg>