<svg xmlns="http://www.w3.org/2000/svg" viewBox="0 0 24 24"><g fill="none" class="nc-icon-wrapper"><path d="M3.473 8.304a1.333 1.333 0 1 0 0-2.667 1.333 1.333 0 0 0 0 2.667z" fill="#002B44"></path><path d="M3.473 13.637a1.333 1.333 0 1 0 0-2.666 1.333 1.333 0 0 0 0 2.666z" fill="#002B44"></path><path d="M3.473 18.97a1.333 1.333 0 1 0 0-2.666 1.333 1.333 0 0 0 0 2.667z" fill="#002B44"></path><path d="M21.613 6.857a.667.667 0 0 0-.666-.667H6.667v1.334h14.28a.667.667 0 0 0 .666-.667z" fill="#002B44"></path><path d="M20.947 11.524H6.667v1.333h14.28a.667.667 0 0 0 0-1.333z" fill="#002B44"></path><path d="M20.947 16.857H6.667v1.334h14.28a.667.667 0 0 0 0-1.334z" fill="#002B44"></path></g></svg>