<svg xmlns="http://www.w3.org/2000/svg" viewBox="0 0 20 20"><g fill="none" class="nc-icon-wrapper"><path fill-rule="evenodd" clip-rule="evenodd" d="M10.625.781c0-.431.35-.781.781-.781C16.146 0 20 3.855 20 8.594a.781.781 0 0 1-1.563 0c0-3.876-3.155-7.031-7.03-7.031a.781.781 0 0 1-.782-.782z" fill="#0078FF"></path><path fill-rule="evenodd" clip-rule="evenodd" d="M10.625 3.906c0-.431.35-.781.781-.781a5.474 5.474 0 0 1 5.469 5.469.781.781 0 0 1-1.563 0 3.911 3.911 0 0 0-3.906-3.906.781.781 0 0 1-.781-.782z" fill="#0078FF"></path><path fill-rule="evenodd" clip-rule="evenodd" d="M10.625 7.031c0-.431.35-.781.781-.781a2.344 2.344 0 0 1 2.344 2.344.781.781 0 0 1-1.563 0 .781.781 0 0 0-.78-.781.781.781 0 0 1-.782-.782z" fill="#0078FF"></path><path fill-rule="evenodd" clip-rule="evenodd" d="M3.867.989c.207 0 .406.082.552.229l3.315 3.314c.915.915.915 2.4 0 3.315l-.977.976c.618.773 1.315 1.571 2.082 2.338a28.223 28.223 0 0 0 2.338 2.082l.976-.977a2.344 2.344 0 0 1 3.315 0l3.314 3.315c.305.305.305.8 0 1.105l-2.172 2.172a3.913 3.913 0 0 1-4.86.534c-1.665-1.05-4.029-2.719-6.226-4.916-2.197-2.197-3.866-4.56-4.916-6.227a3.913 3.913 0 0 1 .534-4.86l2.172-2.171a.781.781 0 0 1 .553-.23zm0 1.886l-1.62 1.62a2.35 2.35 0 0 0-.317 2.921c1.012 1.606 2.611 3.867 4.699 5.955 2.088 2.088 4.349 3.687 5.955 4.699a2.35 2.35 0 0 0 2.921-.317l1.62-1.62-2.762-2.762a.781.781 0 0 0-1.105 0l-1.465 1.465a.781.781 0 0 1-1.027.068 30.493 30.493 0 0 1-3.032-2.638 30.553 30.553 0 0 1-2.639-3.032.781.781 0 0 1 .069-1.027l1.465-1.465a.781.781 0 0 0 0-1.105L3.867 2.875z" fill="#0078FF"></path></g></svg>