<svg xmlns="http://www.w3.org/2000/svg" viewBox="0 0 32 32"><g fill="currentColor" class="nc-icon-wrapper"><path d="M15.991 5.68c2.946-2.859 7.433-3.483 10.963-.549 3.738 3.107 4.189 8.399 1.308 12.107-1.134 1.459-3.375 3.681-5.561 5.745a247.111 247.111 0 0 1-5.484 5.003l-.016.014a5.368 5.368 0 0 1-.323.272 1.49 1.49 0 0 1-.467.245 1.479 1.479 0 0 1-.839 0 1.47 1.47 0 0 1-.467-.245c-.104-.078-.216-.178-.323-.272l-.016-.014a247.111 247.111 0 0 1-5.484-5.003c-2.186-2.064-4.427-4.286-5.561-5.745-2.888-3.716-2.362-8.971 1.299-12.1 3.484-2.977 8.022-2.316 10.971.542zm-.608 1.688c-2.43-2.841-6.377-3.531-9.324-1.013-3.019 2.579-3.433 6.867-1.075 9.901 1.047 1.347 3.197 3.487 5.396 5.563a244.054 244.054 0 0 0 5.599 5.102l.013.011.013-.011.152-.133a246.341 246.341 0 0 0 5.447-4.969c2.199-2.076 4.349-4.217 5.396-5.563 2.365-3.043 1.99-7.353-1.067-9.894-3.013-2.504-6.908-1.828-9.332 1.006a.799.799 0 0 1-1.216 0z"></path></g></svg>