<svg xmlns="http://www.w3.org/2000/svg" viewBox="0 0 24 24"><g fill="none" class="nc-icon-wrapper"><path d="M22.119 11.921c0-.157.063-.524.648-.524h1c.434 0 .129-.362.129-.362L21.167 6.73c-.009-.01-.147-.176-.282.024l-2.695 4.263s-.338.38.126.38h1.012c.301 0 .647.072.647.642 0 4.894-4 8.876-8.915 8.876-4.917 0-8.917-4-8.917-8.916s4-8.916 8.917-8.916c1.314 0 2.58.279 3.76.83a1.077 1.077 0 0 0 1.424-.519 1.073 1.073 0 0 0-.518-1.425A10.968 10.968 0 0 0 11.06.94C4.96.94 0 5.902 0 12c0 6.098 4.961 11.06 11.06 11.06 6.074 0 11.035-4.942 11.059-11.016v-.123z" fill="#002B44"></path><path d="M11.717 11.028c-1.424-.57-1.835-.916-1.835-1.539 0-.499.377-1.081 1.443-1.081.941 0 1.664.371 1.67.374.077.041.162.063.246.063a.496.496 0 0 0 .464-.318l.26-.662a.41.41 0 0 0-.222-.526c-.58-.253-1.713-.448-1.725-.45-.018-.003-.082-.017-.082-.091l-.004-.96a.532.532 0 0 0-.537-.524h-.464a.532.532 0 0 0-.537.524v1.01c0 .077-.083.11-.114.117-1.43.341-2.325 1.39-2.325 2.712 0 1.648 1.363 2.393 2.834 2.952 1.176.461 1.655.93 1.655 1.616 0 .747-.68 1.27-1.652 1.27-.831 0-1.956-.528-1.968-.533a.525.525 0 0 0-.226-.051c-.214 0-.4.129-.475.33l-.247.668c-.088.25.047.453.22.543.69.36 2.028.57 2.087.58.016.002.097.031.097.105v1.005c0 .289.242.524.538.524h.48a.532.532 0 0 0 .538-.524v-1.057c0-.1.073-.108.088-.111 1.524-.343 2.463-1.458 2.463-2.859 0-1.438-.799-2.367-2.67-3.107z" fill="#002B44"></path></g></svg>