<svg xmlns="http://www.w3.org/2000/svg" width="62" height="62" viewBox="0 0 62 62" fill="none">
  <path fill-rule="evenodd" clip-rule="evenodd" d="M3.21115 40.0508C3.21115 39.382 3.75331 38.8398 4.42209 38.8398H26.4379C27.1067 38.8398 27.6488 39.382 27.6488 40.0508V52.2257C27.6488 52.8944 27.1067 53.4366 26.4379 53.4366H4.42209C3.75331 53.4366 3.21115 52.8944 3.21115 52.2257V40.0508ZM5.63303 41.2617V51.0147H25.227V41.2617H5.63303Z" fill="#002B44"></path>
  <path d="M33.3605 6.84961H19.5152V15.4903H33.3605V6.84961Z" fill="#0078FF"></path>
  <path d="M32.0315 15.4902H20.8444V28.8471H32.0315V15.4902Z" fill="#0078FF"></path>
  <path fill-rule="evenodd" clip-rule="evenodd" d="M0 6.84961C0 6.18083 0.542155 5.63867 1.21094 5.63867H51.6648C52.3336 5.63867 52.8757 6.18083 52.8757 6.84961V15.4903C52.8757 16.159 52.3336 16.7012 51.6648 16.7012H1.21094C0.542155 16.7012 0 16.159 0 15.4903V6.84961ZM2.42188 8.06055V14.2793H50.4538V8.06055H2.42188Z" fill="#002B44"></path>
  <path fill-rule="evenodd" clip-rule="evenodd" d="M3.21115 15.4902C3.21115 14.8215 3.75331 14.2793 4.42209 14.2793H48.4537C49.1225 14.2793 49.6646 14.8215 49.6646 15.4902V33.8579C49.6646 34.5266 49.1225 35.0688 48.4537 35.0688C47.7849 35.0688 47.2428 34.5266 47.2428 33.8579V16.7012H5.63303V51.0147H45.1441C45.8129 51.0147 46.355 51.5568 46.355 52.2256C46.355 52.8944 45.8129 53.4365 45.1441 53.4365H4.42209C3.75331 53.4365 3.21115 52.8944 3.21115 52.2256V15.4902Z" fill="#002B44"></path>
  <path d="M48.4537 56.3597C55.9351 56.3597 62 50.2888 62 42.7999C62 35.3111 55.9351 29.2402 48.4537 29.2402C40.9723 29.2402 34.9075 35.3111 34.9075 42.7999C34.9075 50.2888 40.9723 56.3597 48.4537 56.3597Z" fill="#0078FF"></path>
  <path fill-rule="evenodd" clip-rule="evenodd" d="M40.3225 39.6087C41.5951 36.3629 44.7538 34.0605 48.4537 34.0605C52.1536 34.0605 55.3123 36.363 56.5849 39.6087C56.8291 40.2313 56.5222 40.9339 55.8996 41.1781C55.2769 41.4222 54.5743 41.1154 54.3302 40.4927C53.4086 38.1422 51.1229 36.4824 48.4537 36.4824C45.7846 36.4824 43.4989 38.1422 42.5773 40.4927C42.3332 41.1154 41.6305 41.4222 41.0079 41.1781C40.3852 40.9339 40.0784 40.2313 40.3225 39.6087Z" fill="white"></path>
  <path fill-rule="evenodd" clip-rule="evenodd" d="M56.5135 37.7446C57.1563 37.9292 57.5278 38.6 57.3431 39.2428L56.8967 40.7974C56.808 41.1062 56.6002 41.3671 56.3191 41.5226C56.038 41.6782 55.7066 41.7157 55.3979 41.6268L53.8447 41.1799C53.202 40.9949 52.831 40.324 53.0159 39.6813C53.2009 39.0386 53.8718 38.6675 54.5145 38.8525L54.9033 38.9643L55.0154 38.5743C55.2 37.9315 55.8707 37.56 56.5135 37.7446Z" fill="white"></path>
  <path fill-rule="evenodd" clip-rule="evenodd" d="M41.0079 44.4218C41.6305 44.1776 42.3332 44.4845 42.5773 45.1071C43.4989 47.4576 45.7846 49.1174 48.4537 49.1174C51.1229 49.1174 53.4086 47.4576 54.3302 45.1071C54.5743 44.4845 55.2769 44.1776 55.8996 44.4218C56.5222 44.6659 56.8291 45.3686 56.5849 45.9912C55.3123 49.2369 52.1536 51.5393 48.4537 51.5393C44.7538 51.5393 41.5951 49.2369 40.3225 45.9912C40.0784 45.3686 40.3852 44.6659 41.0079 44.4218Z" fill="white"></path>
  <path fill-rule="evenodd" clip-rule="evenodd" d="M40.5882 44.0772C40.8693 43.9216 41.2007 43.8842 41.5095 43.973L43.0626 44.42C43.7053 44.6049 44.0764 45.2759 43.8914 45.9186C43.7065 46.5613 43.0355 46.9323 42.3928 46.7474L42.004 46.6355L41.892 47.0257C41.7074 47.6685 41.0367 48.0399 40.3939 47.8553C39.7511 47.6707 39.3796 47 39.5642 46.3572L40.0107 44.8025C40.0994 44.4937 40.3071 44.2328 40.5882 44.0772Z" fill="white"></path>
  <path fill-rule="evenodd" clip-rule="evenodd" d="M9.6123 46.3184C9.6123 45.6496 10.1545 45.1074 10.8232 45.1074H20.0367C20.7054 45.1074 21.2476 45.6496 21.2476 46.3184C21.2476 46.9871 20.7054 47.5293 20.0367 47.5293H10.8232C10.1545 47.5293 9.6123 46.9871 9.6123 46.3184Z" fill="#002B44"></path>
</svg>
