<svg xmlns="http://www.w3.org/2000/svg" width="144" height="31" viewBox="0 0 144 31" fill="none"><path d="M3.53117 24.5022C2.90366 24.5036 2.28704 24.3383 1.74429 24.0234C1.20154 23.7084 0.752125 23.2551 0.441951 22.7096C0.136525 22.1679 -0.015799 21.5534 0.00129579 20.9318C0.0183906 20.3102 0.20426 19.705 0.538995 19.181L6.90073 9.19088C7.22634 8.65397 7.68862 8.2131 8.24036 7.91332C8.7921 7.61353 9.41353 7.46556 10.0412 7.48453C10.6683 7.49956 11.2802 7.68095 11.8143 8.01013C12.3483 8.33931 12.7853 8.80447 13.0805 9.35801C13.6736 10.4794 13.5994 11.8286 12.8891 12.8812L6.53143 22.8713C6.20902 23.3737 5.76501 23.7866 5.24054 24.0717C4.71607 24.3568 4.12811 24.5048 3.53117 24.5022Z" fill="#F62B54"></path><path d="M14.4427 24.5022C13.1596 24.5022 11.9789 23.8162 11.3589 22.7137C11.0541 22.1735 10.9022 21.5606 10.9193 20.9406C10.9364 20.3207 11.1219 19.717 11.4559 19.1945L17.8055 9.22732C18.1264 8.68286 18.587 8.23414 19.1397 7.9277C19.6923 7.62127 20.3169 7.46827 20.9487 7.48458C22.2426 7.51288 23.4152 8.23667 24.0082 9.36884C24.5972 10.501 24.511 11.8583 23.7791 12.9082L17.4308 22.8754C17.1094 23.3757 16.6672 23.7869 16.145 24.0712C15.6227 24.3556 15.0373 24.5038 14.4427 24.5022Z" fill="#FFCC00"></path><path d="M25.1112 24.5853C26.92 24.5853 28.3864 23.1497 28.3864 21.3788C28.3864 19.608 26.92 18.1724 25.1112 18.1724C23.3023 18.1724 21.8359 19.608 21.8359 21.3788C21.8359 23.1497 23.3023 24.5853 25.1112 24.5853Z" fill="#00CA72"></path><path fill-rule="evenodd" clip-rule="evenodd" d="M143.364 8.29722H138.578L135.223 16.9462L131.886 8.29722H127.1L132.918 21.9642L129.299 31H134.05L143.364 8.29722ZM114.256 15.899C114.256 18.0824 116.165 19.5192 118.04 19.5192C119.882 19.5192 121.692 18.1822 121.692 15.8976C121.692 13.613 119.882 12.2747 118.04 12.2747C116.165 12.2747 114.256 13.7128 114.256 15.8976V15.899ZM121.692 23.5303V21.8011C120.722 23.2702 118.457 23.8255 117.296 23.8255C113.449 23.8255 109.601 20.7929 109.601 15.8976C109.601 11.0037 113.448 7.97104 117.296 7.97104C118.265 7.97104 120.529 8.29452 121.692 9.99278V8.30261H126.154V23.533L121.692 23.5317V23.5303ZM108.331 23.5303H103.87V21.638C103.125 23.0397 101.317 23.8565 99.441 23.8565C95.5606 23.8565 92.1331 20.7579 92.1331 15.9596C92.1331 11.071 95.5606 7.96835 99.441 7.96835C101.314 7.96835 103.127 8.75009 103.87 10.1532V0H108.331V23.5303ZM103.773 15.8639C103.773 13.5807 102.124 12.2423 100.282 12.2423C98.3735 12.2423 96.7884 13.6777 96.7884 15.8639C96.7884 18.1202 98.3735 19.5489 100.281 19.5489C102.158 19.5516 103.773 18.0501 103.773 15.8639ZM81.1024 15.4703C81.1024 13.1548 82.2993 12.3717 83.883 12.3717C85.402 12.3717 86.5018 13.3826 86.5018 15.4043V23.5277H90.9955V14.4271C90.9955 10.0898 88.8605 7.96835 85.4654 7.96835C83.6876 7.96835 81.9098 8.97922 81.1011 10.513V8.29722H76.6101V23.5277H81.1024V15.4703ZM67.4854 23.7891C63.2181 23.7891 59.6585 20.6581 59.6585 15.8626C59.6585 11.0643 63.2141 7.9643 67.4854 7.9643C71.7566 7.9643 75.3432 11.0643 75.3432 15.8626C75.3432 20.6608 71.7526 23.7905 67.4854 23.7905V23.7891ZM67.4854 19.3548C69.3588 19.3548 70.9129 17.9827 70.9129 15.8639C70.9129 13.8085 69.3602 12.4054 67.4854 12.4054C67.0339 12.3983 66.5858 12.4832 66.1682 12.6549C65.7507 12.8266 65.3724 13.0815 65.0566 13.4041C64.7389 13.7284 64.4896 14.1133 64.3236 14.5359C64.1576 14.9584 64.0782 15.4101 64.0902 15.8639C64.0915 17.9854 65.6429 19.3548 67.4854 19.3548ZM51.6026 12.373C52.9275 12.373 54.092 13.4176 54.092 15.4057V23.5303H58.5533V14.88C58.5533 10.2812 56.3173 7.96565 52.7334 7.96565C51.6686 7.96565 49.663 8.28913 48.2074 10.6721C47.3664 8.91048 45.7503 7.99665 43.362 7.99665C42.5327 7.99243 41.7199 8.22712 41.0205 8.67265C40.3211 9.11818 39.7649 9.7557 39.4182 10.509V8.29857H34.9219V23.529H39.4142V15.4703C39.4142 13.1548 40.6757 12.3717 42.033 12.3717C43.3269 12.3717 44.4887 13.3826 44.5224 15.3073V23.529H49.0161V15.4703C49.0161 13.2559 50.1806 12.3744 51.6026 12.3744V12.373Z" fill="#333333"></path></svg>