<svg xmlns="http://www.w3.org/2000/svg" width="124" height="40" viewBox="0 0 124 40" fill="none"><path d="M11.2765 18.5987C11.9749 16.0418 14.6535 13.4135 17.2595 12.7283L33.506 8.45632C36.1119 7.7711 37.6583 9.28839 36.9599 11.8453L32.606 27.7861C31.9077 30.343 29.229 32.9712 26.6231 33.6565L10.3766 37.9284C7.77065 38.6137 6.22426 37.0964 6.92262 34.5395L11.2765 18.5987Z" fill="#9E77ED"></path><path d="M4.76383 12.2078C5.46219 9.65089 8.14084 7.02264 10.7468 6.33742L26.9933 2.06545C29.5992 1.38023 31.1456 2.89752 30.4473 5.45441L26.0934 21.3952C25.395 23.9521 22.7164 26.5804 20.1104 27.2656L3.86388 31.5376C1.25795 32.2228 -0.288437 30.7055 0.409924 28.1486L4.76383 12.2078Z" fill="#6941C6"></path><path d="M52.0567 26.1867H57.6452V28.3334H49.3457V12.1167H52.0567V26.1867Z" fill="#101828"></path><path d="M59.0087 21.8467C59.0087 20.5556 59.2782 19.4123 59.8173 18.4167C60.3721 17.4211 61.1173 16.6511 62.0526 16.1067C63.0039 15.5467 64.0502 15.2667 65.1917 15.2667C66.2222 15.2667 67.118 15.4689 67.8789 15.8734C68.6558 16.2623 69.2741 16.7523 69.7339 17.3434V15.4767H72.4686V28.3334H69.7339V26.42C69.2741 27.0267 68.6479 27.5323 67.8552 27.9367C67.0625 28.3411 66.1588 28.5434 65.1442 28.5434C64.0185 28.5434 62.988 28.2634 62.0526 27.7034C61.1173 27.1278 60.3721 26.3345 59.8173 25.3234C59.2782 24.2967 59.0087 23.1378 59.0087 21.8467ZM69.7339 21.8934C69.7339 21.0067 69.5436 20.2367 69.1631 19.5834C68.7985 18.93 68.3149 18.4323 67.7125 18.09C67.11 17.7478 66.46 17.5767 65.7625 17.5767C65.0649 17.5767 64.4149 17.7478 63.8124 18.09C63.21 18.4167 62.7185 18.9067 62.338 19.56C61.9734 20.1978 61.7911 20.96 61.7911 21.8467C61.7911 22.7334 61.9734 23.5111 62.338 24.18C62.7185 24.8489 63.21 25.3623 63.8124 25.72C64.4307 26.0623 65.0807 26.2334 65.7625 26.2334C66.46 26.2334 67.11 26.0623 67.7125 25.72C68.3149 25.3778 68.7985 24.88 69.1631 24.2267C69.5436 23.5578 69.7339 22.78 69.7339 21.8934Z" fill="#101828"></path><path d="M87.8247 15.4767L79.7868 34.3767H76.9807L79.6441 28.1234L74.4837 15.4767H77.5039L81.1899 25.2767L85.0186 15.4767H87.8247Z" fill="#101828"></path><path d="M101.88 21.59C101.88 22.0723 101.848 22.5078 101.785 22.8967H91.7731C91.8524 23.9234 92.2408 24.7478 92.9384 25.37C93.6359 25.9923 94.492 26.3034 95.5067 26.3034C96.9652 26.3034 97.9957 25.7045 98.5982 24.5067H101.523C101.127 25.6889 100.406 26.6611 99.3592 27.4234C98.3287 28.17 97.0445 28.5434 95.5067 28.5434C94.2542 28.5434 93.1286 28.2711 92.1298 27.7267C91.1469 27.1667 90.37 26.3889 89.7993 25.3934C89.2444 24.3823 88.967 23.2156 88.967 21.8934C88.967 20.5711 89.2365 19.4123 89.7755 18.4167C90.3304 17.4056 91.0993 16.6278 92.0822 16.0834C93.081 15.5389 94.2225 15.2667 95.5067 15.2667C96.7433 15.2667 97.8451 15.5311 98.8122 16.06C99.7793 16.5889 100.532 17.3356 101.071 18.3C101.61 19.2489 101.88 20.3456 101.88 21.59ZM99.05 20.75C99.0342 19.77 98.6775 18.9845 97.9799 18.3934C97.2823 17.8023 96.4183 17.5067 95.3878 17.5067C94.4524 17.5067 93.6518 17.8023 92.9859 18.3934C92.3201 18.9689 91.9237 19.7545 91.7969 20.75H99.05Z" fill="#101828"></path><path d="M107.259 17.3434C107.655 16.69 108.178 16.1845 108.828 15.8267C109.494 15.4534 110.279 15.2667 111.183 15.2667V18.02H110.493C109.431 18.02 108.622 18.2845 108.067 18.8134C107.528 19.3423 107.259 20.26 107.259 21.5667V28.3334H104.548V15.4767H107.259V17.3434Z" fill="#101828"></path><path d="M118.431 28.5434C117.4 28.5434 116.473 28.3645 115.648 28.0067C114.84 27.6334 114.198 27.1356 113.722 26.5134C113.247 25.8756 112.993 25.1678 112.961 24.39H115.767C115.815 24.9345 116.077 25.3934 116.552 25.7667C117.044 26.1245 117.654 26.3034 118.383 26.3034C119.144 26.3034 119.731 26.1634 120.143 25.8834C120.571 25.5878 120.785 25.2145 120.785 24.7634C120.785 24.2811 120.547 23.9234 120.072 23.69C119.612 23.4567 118.875 23.2 117.86 22.92C116.877 22.6556 116.077 22.3989 115.458 22.15C114.84 21.9011 114.301 21.52 113.841 21.0067C113.397 20.4934 113.175 19.8167 113.175 18.9767C113.175 18.2923 113.381 17.67 113.794 17.11C114.206 16.5345 114.792 16.0834 115.553 15.7567C116.33 15.43 117.218 15.2667 118.217 15.2667C119.707 15.2667 120.904 15.64 121.808 16.3867C122.727 17.1178 123.219 18.1211 123.282 19.3967H120.571C120.524 18.8211 120.286 18.3623 119.858 18.02C119.43 17.6778 118.851 17.5067 118.122 17.5067C117.408 17.5067 116.861 17.6389 116.481 17.9034C116.1 18.1678 115.91 18.5178 115.91 18.9534C115.91 19.2956 116.037 19.5834 116.291 19.8167C116.544 20.05 116.853 20.2367 117.218 20.3767C117.583 20.5011 118.122 20.6645 118.835 20.8667C119.786 21.1156 120.563 21.3723 121.166 21.6367C121.784 21.8856 122.315 22.2589 122.759 22.7567C123.203 23.2545 123.433 23.9156 123.449 24.74C123.449 25.4711 123.242 26.1245 122.83 26.7C122.418 27.2756 121.831 27.7267 121.071 28.0534C120.325 28.38 119.445 28.5434 118.431 28.5434Z" fill="#101828"></path></svg>