<svg xmlns="http://www.w3.org/2000/svg" width="137" height="38" viewBox="0 0 137 38" fill="none"><rect y="15.2" width="7.78224" height="7.59999" fill="#039855"></rect><rect x="23.3467" y="22.8" width="7.78225" height="7.59999" transform="rotate(180 23.3467 22.8)" fill="#027A48"></rect><path d="M7.78223 15.2001L15.5645 7.6001V15.2001L7.78223 22.8001V15.2001Z" fill="#A6F4C5"></path><path d="M15.5645 22.7999L7.78222 30.3999L7.78222 22.7999L15.5645 15.1999L15.5645 22.7999Z" fill="#6CE9A6"></path><path d="M0 15.2L15.5645 0V7.59999L7.78224 15.2H0Z" fill="#32D583"></path><path d="M23.3467 22.8L7.7822 38L7.7822 30.4L15.5644 22.8L23.3467 22.8Z" fill="#12B76A"></path><path d="M40.296 27.1383C39.0703 27.1383 37.8824 26.9683 36.7323 26.6285C35.5974 26.2886 34.6971 25.8378 34.0312 25.2763L35.0527 23.0375C35.7034 23.5399 36.4978 23.9537 37.436 24.2788C38.3893 24.5891 39.3426 24.7443 40.296 24.7443C41.4763 24.7443 42.3539 24.5596 42.929 24.1901C43.5191 23.8207 43.8142 23.333 43.8142 22.7271C43.8142 22.2838 43.6477 21.9217 43.3148 21.641C42.997 21.3454 42.5885 21.1163 42.0891 20.9538C41.5898 20.7912 40.9088 20.6065 40.0463 20.3996C38.8357 20.1188 37.8521 19.8381 37.0955 19.5573C36.354 19.2765 35.7109 18.8406 35.1662 18.2495C34.6365 17.6436 34.3717 16.8308 34.3717 15.8111C34.3717 14.954 34.6063 14.1782 35.0754 13.4836C35.5596 12.7743 36.2784 12.2127 37.2317 11.799C38.2002 11.3852 39.3805 11.1783 40.7726 11.1783C41.7411 11.1783 42.6944 11.2965 43.6326 11.533C44.5708 11.7694 45.3804 12.1093 46.0613 12.5526L45.1307 14.7915C44.4346 14.3925 43.7083 14.0895 42.9517 13.8826C42.195 13.6757 41.4611 13.5723 40.7499 13.5723C39.5847 13.5723 38.7147 13.7644 38.1396 14.1486C37.5797 14.5328 37.2998 15.0427 37.2998 15.6781C37.2998 16.1215 37.4587 16.4835 37.7765 16.7643C38.1094 17.0451 38.5255 17.2667 39.0249 17.4293C39.5242 17.5918 40.2052 17.7766 41.0677 17.9835C42.248 18.2495 43.2165 18.5302 43.9731 18.8258C44.7297 19.1066 45.3728 19.5425 45.9024 20.1336C46.4472 20.7247 46.7196 21.5227 46.7196 22.5276C46.7196 23.3847 46.4774 24.1606 45.9932 24.8551C45.5241 25.5497 44.8053 26.1038 43.8369 26.5176C42.8684 26.9314 41.6881 27.1383 40.296 27.1383Z" fill="#101828"></path><path d="M49.3731 15.0796H52.2104V26.9166H49.3731V15.0796ZM50.8031 13.129C50.2886 13.129 49.8573 12.9738 49.5093 12.6635C49.1613 12.3383 48.9873 11.9393 48.9873 11.4665C48.9873 10.9936 49.1613 10.602 49.5093 10.2916C49.8573 9.96651 50.2886 9.80396 50.8031 9.80396C51.3176 9.80396 51.7489 9.95912 52.0969 10.2695C52.4449 10.565 52.619 10.9418 52.619 11.4C52.619 11.8876 52.4449 12.3014 52.0969 12.6413C51.764 12.9664 51.3327 13.129 50.8031 13.129Z" fill="#101828"></path><path d="M59.6795 27.0718C58.6959 27.0718 57.7351 26.9462 56.7969 26.695C55.8587 26.4437 55.1096 26.126 54.5497 25.7418L55.6392 23.636C56.184 23.9906 56.8347 24.2788 57.5913 24.5005C58.363 24.7073 59.1196 24.8108 59.8611 24.8108C61.5559 24.8108 62.4033 24.3748 62.4033 23.503C62.4033 23.0892 62.1839 22.801 61.7451 22.6385C61.3214 22.4759 60.6329 22.3207 59.6795 22.173C58.6808 22.0252 57.8637 21.8552 57.2281 21.6631C56.6077 21.471 56.0629 21.1385 55.5939 20.6656C55.1399 20.178 54.9129 19.5056 54.9129 18.6485C54.9129 17.5253 55.3896 16.6313 56.3429 15.9663C57.3113 15.2865 58.6127 14.9466 60.247 14.9466C61.0793 14.9466 61.9115 15.0427 62.7438 15.2348C63.5761 15.4121 64.257 15.656 64.7866 15.9663L63.6971 18.0721C62.6681 17.481 61.5105 17.1855 60.2243 17.1855C59.392 17.1855 58.7565 17.3111 58.3176 17.5623C57.8939 17.7987 57.6821 18.1165 57.6821 18.5155C57.6821 18.9588 57.9091 19.2765 58.363 19.4686C58.8321 19.646 59.5509 19.8159 60.5194 19.9785C61.4878 20.1262 62.2823 20.2962 62.9027 20.4883C63.5231 20.6804 64.0527 21.0055 64.4916 21.4636C64.9455 21.9217 65.1725 22.572 65.1725 23.4143C65.1725 24.5226 64.6807 25.4093 63.6971 26.0743C62.7135 26.7393 61.3743 27.0718 59.6795 27.0718Z" fill="#101828"></path><path d="M78.7434 15.0796L73.0688 27.8698C72.5392 29.1555 71.8961 30.0569 71.1395 30.5741C70.3829 31.1061 69.4674 31.3721 68.393 31.3721C67.7877 31.3721 67.19 31.2761 66.5998 31.084C66.0097 30.8918 65.5254 30.6258 65.1471 30.286L66.2821 28.2466C66.5544 28.4978 66.8722 28.6973 67.2354 28.8451C67.6137 28.9929 67.992 29.0668 68.3703 29.0668C68.8697 29.0668 69.2782 28.9412 69.596 28.69C69.9289 28.4387 70.2315 28.0176 70.5039 27.4265L70.7082 26.961L65.4195 15.0796H68.3703L72.1836 23.8355L76.0196 15.0796H78.7434Z" fill="#101828"></path><path d="M87.2353 14.9466C88.4157 14.9466 89.4673 15.1978 90.3904 15.7003C91.3286 16.2027 92.0625 16.9121 92.5921 17.8283C93.1218 18.7445 93.3866 19.8011 93.3866 20.9981C93.3866 22.1951 93.1218 23.2591 92.5921 24.1901C92.0625 25.1063 91.3286 25.8157 90.3904 26.3181C89.4673 26.8206 88.4157 27.0718 87.2353 27.0718C85.6011 27.0718 84.3073 26.5398 83.354 25.4758V31.217H80.5167V15.0796H83.2178V16.6313C83.6869 16.0697 84.2619 15.6486 84.9428 15.3678C85.6389 15.087 86.4031 14.9466 87.2353 14.9466ZM86.9176 24.7C87.9617 24.7 88.8167 24.3601 89.4825 23.6803C90.1634 23.0005 90.5039 22.1065 90.5039 20.9981C90.5039 19.8898 90.1634 18.9957 89.4825 18.316C88.8167 17.6362 87.9617 17.2963 86.9176 17.2963C86.2366 17.2963 85.6238 17.4515 85.079 17.7618C84.5343 18.0573 84.103 18.4859 83.7852 19.0475C83.4674 19.609 83.3086 20.2592 83.3086 20.9981C83.3086 21.737 83.4674 22.3872 83.7852 22.9488C84.103 23.5103 84.5343 23.9463 85.079 24.2566C85.6238 24.5522 86.2366 24.7 86.9176 24.7Z" fill="#101828"></path><path d="M102.955 14.9466C104.483 14.9466 105.709 15.3826 106.632 16.2545C107.555 17.1263 108.017 18.4194 108.017 20.1336V26.9166H105.179V20.4883C105.179 19.4538 104.93 18.678 104.43 18.1608C103.931 17.6288 103.22 17.3628 102.297 17.3628C101.253 17.3628 100.428 17.6731 99.8226 18.2938C99.2173 18.8997 98.9146 19.779 98.9146 20.9316V26.9166H96.0774V10.469H98.9146V16.454C99.3837 15.9663 99.9588 15.5968 100.64 15.3456C101.336 15.0796 102.108 14.9466 102.955 14.9466Z" fill="#101828"></path><path d="M123.351 15.0796V26.9166H120.65V25.4093C120.196 25.9413 119.628 26.3551 118.947 26.6506C118.266 26.9314 117.533 27.0718 116.746 27.0718C115.127 27.0718 113.848 26.6358 112.91 25.764C111.987 24.8773 111.525 23.5695 111.525 21.8405V15.0796H114.362V21.4636C114.362 22.5276 114.604 23.3256 115.089 23.8576C115.588 24.3748 116.292 24.6335 117.2 24.6335C118.214 24.6335 119.016 24.3305 119.606 23.7246C120.211 23.104 120.514 22.2173 120.514 21.0646V15.0796H123.351Z" fill="#101828"></path><path d="M130.811 27.0718C129.827 27.0718 128.866 26.9462 127.928 26.695C126.99 26.4437 126.241 26.126 125.681 25.7418L126.771 23.636C127.315 23.9906 127.966 24.2788 128.723 24.5005C129.494 24.7073 130.251 24.8108 130.993 24.8108C132.687 24.8108 133.535 24.3748 133.535 23.503C133.535 23.0892 133.315 22.801 132.877 22.6385C132.453 22.4759 131.764 22.3207 130.811 22.173C129.812 22.0252 128.995 21.8552 128.36 21.6631C127.739 21.471 127.194 21.1385 126.725 20.6656C126.271 20.178 126.044 19.5056 126.044 18.6485C126.044 17.5253 126.521 16.6313 127.474 15.9663C128.443 15.2865 129.744 14.9466 131.378 14.9466C132.211 14.9466 133.043 15.0427 133.875 15.2348C134.707 15.4121 135.388 15.656 135.918 15.9663L134.829 18.0721C133.8 17.481 132.642 17.1855 131.356 17.1855C130.523 17.1855 129.888 17.3111 129.449 17.5623C129.025 17.7987 128.814 18.1165 128.814 18.5155C128.814 18.9588 129.041 19.2765 129.494 19.4686C129.964 19.646 130.682 19.8159 131.651 19.9785C132.619 20.1262 133.414 20.2962 134.034 20.4883C134.655 20.6804 135.184 21.0055 135.623 21.4636C136.077 21.9217 136.304 22.572 136.304 23.4143C136.304 24.5226 135.812 25.4093 134.829 26.0743C133.845 26.7393 132.506 27.0718 130.811 27.0718Z" fill="#101828"></path></svg>