<svg xmlns="http://www.w3.org/2000/svg" width="139" height="36" viewBox="0 0 139 36" fill="none"><path fill-rule="evenodd" clip-rule="evenodd" d="M16.3529 27.35C21.4708 27.35 25.6196 23.1639 25.6196 18C25.6196 12.8361 21.4708 8.65 16.3529 8.65C11.2351 8.65 7.08627 12.8361 7.08627 18C7.08627 23.1639 11.2351 27.35 16.3529 27.35ZM16.3529 34.5C25.3844 34.5 32.7059 27.1127 32.7059 18C32.7059 8.8873 25.3844 1.5 16.3529 1.5C7.32146 1.5 0 8.8873 0 18C0 27.1127 7.32146 34.5 16.3529 34.5Z" fill="#6938EF"></path><path d="M16.5395 18.3613C18.2425 16.643 21.0036 16.643 22.7066 18.3613L31.1863 26.9173C32.8893 28.6356 32.8893 31.4215 31.1863 33.1398C29.4833 34.8581 26.7222 34.8581 25.0192 33.1398L16.5395 24.5838C14.8365 22.8655 14.8365 20.0796 16.5395 18.3613Z" fill="#F670C7"></path><path d="M18.9209 26.9864L24.3065 32.4204C26.8896 30.9668 29.0417 28.827 30.5207 26.2454L25.1792 20.856C24.241 23.8105 21.886 26.1253 18.9209 26.9864Z" fill="#6519BA"></path><path d="M59.1086 27.0749C58.6368 27.6629 58.061 28.1109 57.3811 28.4189C56.7151 28.7269 55.9797 28.8809 55.175 28.8809C54.0927 28.8809 53.1145 28.6429 52.2403 28.1669C51.3662 27.7049 50.3672 26.8789 49.2433 25.6889C47.9252 25.5209 46.7458 25.0939 45.7051 24.4079C44.6783 23.7219 43.8736 22.8399 43.2908 21.7619C42.7219 20.6699 42.4375 19.4659 42.4375 18.1499C42.4375 16.7079 42.7774 15.4129 43.4573 14.2649C44.1511 13.1029 45.1015 12.1929 46.3087 11.5349C47.5297 10.8769 48.8964 10.5479 50.4088 10.5479C51.9212 10.5479 53.281 10.8769 54.4881 11.5349C55.6953 12.1929 56.6457 13.1029 57.3395 14.2649C58.0333 15.4129 58.3801 16.7079 58.3801 18.1499C58.3801 19.8579 57.9014 21.3559 56.944 22.6439C56.0005 23.9319 54.7448 24.8279 53.1769 25.3319C53.5238 25.6959 53.8568 25.9549 54.1759 26.1089C54.5089 26.2769 54.8628 26.3609 55.2374 26.3609C56.1393 26.3609 56.9302 25.9969 57.6101 25.2689L59.1086 27.0749ZM45.8508 18.1499C45.8508 19.0599 46.0451 19.8719 46.4336 20.5859C46.8359 21.2999 47.384 21.8599 48.0778 22.2659C48.7715 22.6579 49.5486 22.8539 50.4088 22.8539C51.2691 22.8539 52.0461 22.6579 52.7399 22.2659C53.4336 21.8599 53.9748 21.2999 54.3633 20.5859C54.7656 19.8719 54.9668 19.0599 54.9668 18.1499C54.9668 17.2399 54.7656 16.4279 54.3633 15.7139C53.9748 14.9999 53.4336 14.4469 52.7399 14.0549C52.0461 13.6489 51.2691 13.4459 50.4088 13.4459C49.5486 13.4459 48.7715 13.6489 48.0778 14.0549C47.384 14.4469 46.8359 14.9999 46.4336 15.7139C46.0451 16.4279 45.8508 17.2399 45.8508 18.1499Z" fill="#101828"></path><path d="M71.9657 14.2019V25.4999H68.8854V24.1559C68.4553 24.6459 67.9419 25.0239 67.3453 25.2899C66.7486 25.5419 66.1034 25.6679 65.4097 25.6679C63.9389 25.6679 62.7734 25.2409 61.9131 24.3869C61.0528 23.5329 60.6227 22.2659 60.6227 20.5859V14.2019H63.8695V20.1029C63.8695 21.9229 64.6257 22.8329 66.1381 22.8329C66.9151 22.8329 67.5395 22.5809 68.0113 22.0769C68.483 21.5589 68.7189 20.7959 68.7189 19.7879V14.2019H71.9657Z" fill="#101828"></path><path d="M80.3017 25.6679C79.1223 25.6679 78.0609 25.4229 77.1174 24.9329C76.1877 24.4289 75.4593 23.7359 74.932 22.8539C74.4048 21.9719 74.1411 20.9709 74.1411 19.8509C74.1411 18.7309 74.4048 17.7299 74.932 16.8479C75.4593 15.9659 76.1877 15.2799 77.1174 14.7899C78.0609 14.2859 79.1223 14.0339 80.3017 14.0339C81.4811 14.0339 82.5357 14.2859 83.4653 14.7899C84.3949 15.2799 85.1234 15.9659 85.6506 16.8479C86.1779 17.7299 86.4415 18.7309 86.4415 19.8509C86.4415 20.9709 86.1779 21.9719 85.6506 22.8539C85.1234 23.7359 84.3949 24.4289 83.4653 24.9329C82.5357 25.4229 81.4811 25.6679 80.3017 25.6679ZM80.3017 22.9799C81.1343 22.9799 81.8141 22.6999 82.3414 22.1399C82.8825 21.5659 83.1531 20.8029 83.1531 19.8509C83.1531 18.8989 82.8825 18.1429 82.3414 17.5829C81.8141 17.0089 81.1343 16.7219 80.3017 16.7219C79.4692 16.7219 78.7824 17.0089 78.2413 17.5829C77.7001 18.1429 77.4296 18.8989 77.4296 19.8509C77.4296 20.8029 77.7001 21.5659 78.2413 22.1399C78.7824 22.6999 79.4692 22.9799 80.3017 22.9799Z" fill="#101828"></path><path d="M95.8338 24.9539C95.5147 25.1919 95.1192 25.3739 94.6475 25.4999C94.1896 25.6119 93.704 25.6679 93.1906 25.6679C91.8586 25.6679 90.8248 25.3249 90.0895 24.6389C89.368 23.9529 89.0072 22.9449 89.0072 21.6149V16.9739H87.2797V14.4539H89.0072V11.7029H92.254V14.4539H95.0429V16.9739H92.254V21.5729C92.254 22.0489 92.3719 22.4199 92.6078 22.6859C92.8576 22.9379 93.2044 23.0639 93.6485 23.0639C94.1618 23.0639 94.5989 22.9239 94.9597 22.6439L95.8338 24.9539Z" fill="#101828"></path><path d="M97.6564 14.2019H100.903V25.4999H97.6564V14.2019ZM99.2798 12.6269C98.6832 12.6269 98.1975 12.4519 97.8229 12.1019C97.4483 11.7519 97.2609 11.3179 97.2609 10.7999C97.2609 10.2819 97.4483 9.8479 97.8229 9.4979C98.1975 9.1479 98.6832 8.9729 99.2798 8.9729C99.8764 8.9729 100.362 9.1409 100.737 9.4769C101.111 9.8129 101.299 10.2329 101.299 10.7369C101.299 11.2829 101.111 11.7379 100.737 12.1019C100.362 12.4519 99.8764 12.6269 99.2798 12.6269Z" fill="#101828"></path><path d="M114.885 19.8929C114.885 19.9349 114.864 20.2289 114.822 20.7749H106.352C106.504 21.4749 106.865 22.0279 107.434 22.4339C108.003 22.8399 108.71 23.0429 109.557 23.0429C110.14 23.0429 110.653 22.9589 111.097 22.7909C111.555 22.6089 111.978 22.3289 112.367 21.9509L114.094 23.8409C113.039 25.0589 111.499 25.6679 109.474 25.6679C108.211 25.6679 107.094 25.4229 106.123 24.9329C105.151 24.4289 104.402 23.7359 103.875 22.8539C103.348 21.9719 103.084 20.9709 103.084 19.8509C103.084 18.7449 103.341 17.7509 103.854 16.8689C104.381 15.9729 105.096 15.2799 105.998 14.7899C106.914 14.2859 107.933 14.0339 109.057 14.0339C110.153 14.0339 111.145 14.2719 112.034 14.7479C112.922 15.2239 113.615 15.9099 114.115 16.8059C114.628 17.6879 114.885 18.7169 114.885 19.8929ZM109.078 16.5119C108.343 16.5119 107.725 16.7219 107.226 17.1419C106.726 17.5619 106.421 18.1359 106.31 18.8639H111.825C111.714 18.1499 111.409 17.5829 110.91 17.1629C110.41 16.7289 109.8 16.5119 109.078 16.5119Z" fill="#101828"></path><path d="M123.852 14.0339C125.24 14.0339 126.357 14.4539 127.203 15.2939C128.063 16.1339 128.494 17.3799 128.494 19.0319V25.4999H125.247V19.5359C125.247 18.6399 125.052 17.9749 124.664 17.5409C124.275 17.0929 123.714 16.8689 122.978 16.8689C122.16 16.8689 121.507 17.1279 121.022 17.6459C120.536 18.1499 120.293 18.9059 120.293 19.9139V25.4999H117.046V14.2019H120.148V15.5249C120.578 15.0489 121.112 14.6849 121.75 14.4329C122.388 14.1669 123.089 14.0339 123.852 14.0339Z" fill="#101828"></path><path d="M138.659 24.9539C138.34 25.1919 137.944 25.3739 137.472 25.4999C137.014 25.6119 136.529 25.6679 136.015 25.6679C134.683 25.6679 133.65 25.3249 132.914 24.6389C132.193 23.9529 131.832 22.9449 131.832 21.6149V16.9739H130.105V14.4539H131.832V11.7029H135.079V14.4539H137.868V16.9739H135.079V21.5729C135.079 22.0489 135.197 22.4199 135.433 22.6859C135.682 22.9379 136.029 23.0639 136.473 23.0639C136.987 23.0639 137.424 22.9239 137.785 22.6439L138.659 24.9539Z" fill="#101828"></path></svg>