<svg xmlns="http://www.w3.org/2000/svg" width="131" height="40" viewBox="0 0 131 40" fill="none"><path d="M8.0195 26.6669C7.33106 25.9499 6.78645 25.0998 6.41685 24.1652C6.04725 23.2307 5.85993 22.23 5.86561 21.2207C5.86311 20.2113 6.05562 19.2116 6.43188 18.2799C6.80814 17.3483 7.36061 16.5034 8.05697 15.7946C8.35527 15.521 8.5963 15.1874 8.76533 14.8143C8.93435 14.4412 9.02781 14.0364 9.03997 13.6247C9.05213 13.213 8.98274 12.8031 8.83604 12.42C8.68935 12.037 8.46845 11.6888 8.18685 11.397C7.90526 11.1051 7.5689 10.8756 7.19838 10.7226C6.82786 10.5695 6.43096 10.4961 6.032 10.5069C5.63304 10.5177 5.2404 10.6124 4.87814 10.7852C4.51587 10.958 4.19159 11.2053 3.92517 11.512C1.42264 14.0794 0.010755 17.5676 6.11903e-05 21.2093C-0.0106327 24.851 1.38074 28.348 3.86814 30.931C4.1337 31.2373 4.45691 31.4845 4.81807 31.6576C5.17922 31.8307 5.57076 31.9261 5.9688 31.938C6.36685 31.9498 6.76306 31.8779 7.1333 31.7266C7.50353 31.5753 7.84003 31.3477 8.12227 31.0578C8.40451 30.7679 8.62659 30.4217 8.77496 30.0403C8.92333 29.659 8.99489 29.2504 8.98527 28.8395C8.97566 28.4287 8.88507 28.0242 8.71903 27.6506C8.55299 27.2771 8.31497 26.9424 8.0195 26.6669Z" fill="#FFDA00"></path><path d="M8.05732 15.7943C9.46072 14.3605 11.3577 13.5594 13.3325 13.5667C15.3072 13.5739 17.1986 14.3889 18.5921 15.833C18.8567 16.1425 19.1799 16.3928 19.5417 16.5686C19.9036 16.7444 20.2964 16.842 20.6961 16.8554C21.0959 16.8687 21.494 16.7975 21.8661 16.6462C22.2382 16.4949 22.5763 16.2667 22.8598 15.9755C23.1433 15.6844 23.366 15.3364 23.5144 14.9532C23.6627 14.5699 23.7336 14.1593 23.7225 13.7467C23.7115 13.3342 23.6188 12.9283 23.4501 12.554C23.2815 12.1798 23.0404 11.8451 22.7418 11.5705C21.5147 10.2878 20.0542 9.26787 18.4441 8.56935C16.8339 7.87082 15.106 7.50746 13.3594 7.50011C11.6128 7.49277 9.88199 7.8416 8.2664 8.52656C6.65081 9.21152 5.18225 10.2191 3.94507 11.4915C3.64569 11.7637 3.4033 12.0961 3.23271 12.4684C3.06212 12.8406 2.96693 13.2449 2.95297 13.6564C2.939 14.068 3.00656 14.4781 3.1515 14.8618C3.29644 15.2454 3.51571 15.5945 3.7959 15.8877C4.07609 16.1809 4.4113 16.412 4.78102 16.5668C5.15074 16.7217 5.54719 16.797 5.9461 16.7883C6.34502 16.7795 6.73801 16.6869 7.10102 16.516C7.46404 16.3451 7.78944 16.0995 8.05732 15.7943Z" fill="#67B3FF"></path><path d="M18.5731 26.7052C17.8787 27.4171 17.0549 27.9806 16.1491 28.3635C15.2433 28.7464 14.2732 28.9411 13.2943 28.9365C12.3158 28.938 11.3467 28.738 10.4439 28.3482C9.54115 27.9584 8.72278 27.3867 8.03673 26.6665C7.77158 26.3587 7.44835 26.1099 7.08681 25.9355C6.72527 25.761 6.33304 25.6646 5.93413 25.652C5.53521 25.6395 5.13802 25.7111 4.76685 25.8625C4.39569 26.0139 4.05838 26.2419 3.77556 26.5325C3.49275 26.8231 3.27038 27.1702 3.12208 27.5526C2.97379 27.935 2.90268 28.3446 2.91311 28.7564C2.92354 29.1681 3.0153 29.5733 3.18276 29.9472C3.35022 30.3211 3.58985 30.6557 3.887 30.9307C5.11621 32.2133 6.57861 33.233 8.19038 33.9313C9.80215 34.6295 11.5316 34.9927 13.2796 34.9999C15.0276 35.007 16.7598 34.6581 18.3769 33.9731C19.994 33.2881 21.4643 32.2805 22.7033 31.008C22.9771 30.7281 23.1947 30.3954 23.3439 30.0287C23.493 29.662 23.5707 29.2686 23.5725 28.8709C23.5744 28.4732 23.5002 28.079 23.3545 27.7109C23.2087 27.3428 22.9941 27.0079 22.7229 26.7254C22.4517 26.4428 22.1292 26.2182 21.7739 26.0643C21.4186 25.9104 21.0374 25.8302 20.6521 25.8283C20.2667 25.8264 19.8848 25.9029 19.5281 26.0534C19.1714 26.2038 18.8469 26.4253 18.5731 26.7052Z" fill="#EB5A68"></path><path d="M8.05691 15.7942C7.64587 16.2179 7.12214 16.5061 6.55217 16.6222C5.9822 16.7383 5.39166 16.677 4.85547 16.4462C4.31928 16.2154 3.8616 15.8254 3.54048 15.3258C3.21935 14.8261 3.04927 14.2393 3.05179 13.6397C3.05431 13.0401 3.22932 12.4548 3.55463 11.9581C3.87994 11.4613 4.34088 11.0755 4.87899 10.8495C5.41711 10.6235 6.00813 10.5675 6.57711 10.6887C7.14608 10.8098 7.66737 11.1027 8.07484 11.5301C8.61768 12.0994 8.92042 12.8672 8.91707 13.666C8.91371 14.4647 8.60452 15.2297 8.05691 15.7942Z" fill="#47A1FF"></path><path d="M8.00043 30.9308C7.58922 31.3544 7.06538 31.6423 6.49537 31.7581C5.92535 31.874 5.33484 31.8125 4.79874 31.5815C4.26264 31.3504 3.8051 30.9603 3.48417 30.4605C3.16324 29.9607 2.99338 29.3738 2.99613 28.7742C2.99888 28.1747 3.17411 27.5895 3.49961 27.0928C3.82511 26.5962 4.2862 26.2105 4.8244 25.9848C5.3626 25.759 5.95364 25.7033 6.52257 25.8247C7.0915 25.9461 7.61267 26.2391 8.01998 26.6667C8.56261 27.2362 8.86506 28.0041 8.8614 28.8029C8.85773 29.6017 8.54825 30.3665 8.00043 30.9308Z" fill="#D5465F"></path><path d="M35.7914 24.1865C36.637 23.5274 36.7494 23.8956 37.4631 24.6321C37.8199 25.0003 38.7958 25.641 38.1571 26.1824C36.8244 27.3056 35.622 27.81 33.9211 27.81C30.0711 27.7915 27.3486 24.8255 27.5669 20.8909C27.6598 19.1287 28.3359 17.4607 29.6703 16.3173C30.8906 15.2513 32.4107 14.7872 34.0074 14.8259C34.79 14.8235 35.5652 14.9812 36.2884 15.29C36.7781 15.4725 37.2397 15.7273 37.6586 16.0466C38.5042 16.7192 38.1099 17.1127 37.4517 17.7903C37.3018 17.945 37.1519 18.1013 37.0199 18.256C36.6826 18.6041 36.4562 18.8563 36.0065 18.5268C35.143 17.9063 34.0514 17.5767 33.0201 17.8542C29.6964 18.7252 29.8463 24.8305 33.9227 24.8507C34.5984 24.8415 35.2535 24.6087 35.7914 24.1865ZM128.182 27.8857C128.049 27.8864 127.916 27.8598 127.793 27.8075C127.67 27.7552 127.558 27.6782 127.463 27.581C127.369 27.4837 127.294 27.3682 127.243 27.241C127.192 27.1138 127.166 26.9774 127.167 26.8398L127.224 13.3126C127.223 13.175 127.249 13.0386 127.3 12.9113C127.35 12.784 127.425 12.6684 127.519 12.571C127.613 12.4736 127.725 12.3964 127.849 12.3439C127.972 12.2914 128.104 12.2646 128.237 12.265H129.327C129.461 12.2646 129.593 12.2915 129.716 12.3441C129.84 12.3967 129.952 12.474 130.046 12.5716C130.14 12.6691 130.215 12.785 130.265 12.9125C130.316 13.04 130.341 13.1765 130.341 13.3143L130.284 26.8415C130.284 26.979 130.258 27.1153 130.208 27.2425C130.157 27.3697 130.082 27.4853 129.988 27.5825C129.894 27.6798 129.782 27.7568 129.659 27.8091C129.536 27.8614 129.403 27.888 129.27 27.8874L128.182 27.8857ZM122.479 26.3169C121.297 27.4603 120.169 28.0606 118.498 28.0606C115.118 28.0404 113.502 25.1533 113.502 21.9166L113.522 16.4132C113.521 16.2756 113.547 16.1394 113.598 16.0123C113.649 15.8852 113.724 15.7697 113.818 15.6726C113.913 15.5755 114.025 15.4987 114.148 15.4466C114.271 15.3945 114.404 15.3681 114.537 15.369H115.627C115.76 15.3683 115.892 15.3949 116.015 15.4472C116.139 15.4996 116.251 15.5766 116.345 15.6738C116.439 15.7711 116.514 15.8866 116.564 16.0138C116.615 16.141 116.641 16.2773 116.64 16.4149L116.622 21.9182C116.622 23.7207 117.561 25.1348 119.402 25.1348C121.243 25.1348 122.369 23.5459 122.387 21.7719V19.8063C122.372 19.73 122.366 19.6521 122.369 19.5743L122.387 16.4535C122.386 16.316 122.412 16.1797 122.462 16.0525C122.513 15.9253 122.588 15.8098 122.682 15.7125C122.776 15.6153 122.888 15.5382 123.011 15.4859C123.135 15.4336 123.267 15.407 123.4 15.4077H124.475C124.609 15.407 124.741 15.4336 124.864 15.4859C124.987 15.5382 125.099 15.6153 125.193 15.7125C125.288 15.8098 125.362 15.9253 125.413 16.0525C125.464 16.1797 125.489 16.316 125.489 16.4535L125.453 26.8415C125.45 27.1164 125.342 27.3789 125.152 27.5716C124.962 27.7642 124.706 27.8711 124.439 27.8689H123.519C123.257 27.8605 123.009 27.7495 122.824 27.5586C122.639 27.3678 122.532 27.1113 122.523 26.8415L122.479 26.3169ZM109.515 15.4077H111.619C111.752 15.4096 111.884 15.4388 112.006 15.4936C112.129 15.5483 112.239 15.6275 112.332 15.7266C112.424 15.8258 112.497 15.9428 112.545 16.071C112.594 16.1992 112.617 16.3361 112.614 16.4737V17.19C112.612 17.4661 112.505 17.7304 112.316 17.9259C112.127 18.1215 111.872 18.2328 111.604 18.2359H109.496L109.458 26.7827C109.459 26.9203 109.433 27.0567 109.383 27.1839C109.332 27.3112 109.257 27.4269 109.163 27.5243C109.069 27.6217 108.957 27.6988 108.834 27.7513C108.71 27.8038 108.578 27.8307 108.445 27.8302H107.357C107.223 27.8306 107.091 27.8039 106.968 27.7514C106.844 27.6989 106.732 27.6217 106.638 27.5244C106.544 27.427 106.469 27.3114 106.418 27.1841C106.367 27.0568 106.341 26.9204 106.342 26.7827L106.379 14.9621C106.379 12.3844 107.806 10.3482 110.361 10.1161C110.436 10.1161 110.491 10.0977 110.566 10.0977C110.717 10.0876 110.867 10.0876 111.018 10.0977H111.995C112.128 10.0996 112.26 10.1288 112.382 10.1834C112.504 10.238 112.615 10.3171 112.708 10.416C112.8 10.515 112.873 10.6318 112.921 10.7598C112.97 10.8879 112.993 11.0245 112.991 11.162V11.8211C112.989 12.0981 112.882 12.3633 112.692 12.5593C112.502 12.7554 112.246 12.8665 111.977 12.8687H111.189C109.986 12.8687 109.48 13.817 109.46 14.9806L109.515 15.4077ZM101.967 15.369H104.272C104.539 15.3717 104.793 15.4833 104.98 15.6794C105.167 15.8755 105.27 16.14 105.268 16.4149V17.1312C105.265 17.406 105.157 17.6686 104.967 17.8612C104.777 18.0538 104.521 18.1608 104.255 18.1585H101.948L101.93 23.3878C101.93 24.3967 102.399 24.9768 103.375 24.9768H103.844C104.11 24.9799 104.365 25.0919 104.551 25.2883C104.738 25.4846 104.842 25.7493 104.839 26.0243V26.7507C104.836 27.0254 104.728 27.2877 104.538 27.4803C104.348 27.6728 104.092 27.7799 103.826 27.7781H102.943C102.78 27.7814 102.617 27.7747 102.454 27.7579C99.9566 27.5898 98.8487 25.9184 98.8487 23.3979C98.8682 20.0064 98.8682 16.6351 98.8861 13.2436C98.8874 13.1074 98.9147 12.9728 98.9664 12.8474C99.0181 12.722 99.0932 12.6084 99.1875 12.513C99.2817 12.4176 99.3933 12.3423 99.5157 12.2914C99.6382 12.2405 99.7692 12.2149 99.9012 12.2163H100.972C101.238 12.2189 101.492 12.3306 101.679 12.5267C101.866 12.7228 101.969 12.9873 101.967 13.2621V15.369ZM68.5673 15.2328H70.8727C71.139 15.2355 71.3934 15.3471 71.58 15.5432C71.7667 15.7393 71.8703 16.0038 71.8681 16.2787V16.9983C71.8651 17.273 71.7568 17.5353 71.5669 17.7279C71.377 17.9204 71.1209 18.0275 70.8547 18.0257H68.5412V23.2567C68.5412 24.2655 69.0104 24.8456 69.9863 24.8456H70.4572C70.589 24.847 70.7192 24.8751 70.8405 24.9283C70.9618 24.9816 71.0717 25.059 71.164 25.1561C71.2563 25.2532 71.3292 25.3682 71.3784 25.4943C71.4276 25.6205 71.4523 25.7555 71.451 25.8915V26.6078C71.4485 26.8827 71.3403 27.1452 71.1503 27.3378C70.9603 27.5305 70.704 27.6374 70.4376 27.6352H69.7436C67.0195 27.6167 65.4423 26.4144 65.4423 23.2634C65.4619 19.8719 65.4619 16.4989 65.4798 13.1074C65.4828 12.8324 65.5913 12.5699 65.7816 12.3773C65.9719 12.1847 66.2284 12.0778 66.4948 12.0801H67.5653C67.8316 12.0832 68.0858 12.1952 68.2722 12.3917C68.4585 12.5881 68.5617 12.8528 68.5591 13.1276L68.5673 15.2328ZM55.0102 16.7057C56.1181 15.6397 57.3205 14.9621 58.878 14.9621C62.2588 14.9806 64.0053 17.8205 63.9858 21.1044L63.9679 26.6078C63.9683 26.7455 63.9423 26.8819 63.8915 27.0092C63.8406 27.1365 63.7659 27.2521 63.6715 27.3495C63.5772 27.4469 63.4651 27.524 63.3418 27.5765C63.2184 27.629 63.0862 27.6558 62.9528 27.6553H61.8645C61.7311 27.6558 61.5989 27.629 61.4755 27.5765C61.3522 27.524 61.2401 27.4469 61.1458 27.3495C61.0514 27.2521 60.9767 27.1365 60.9258 27.0092C60.875 26.8819 60.849 26.7455 60.8495 26.6078L60.869 21.1431C60.869 19.3406 59.9306 17.9265 58.0895 17.9265C56.2484 17.9265 55.1226 19.4969 55.1047 21.2793L55.0851 26.6078C55.0826 26.8827 54.9744 27.1452 54.7844 27.3378C54.5944 27.5305 54.3381 27.6374 54.0717 27.6352H53.0013C52.735 27.6325 52.4806 27.5209 52.2939 27.3248C52.1073 27.1287 52.0037 26.8642 52.0058 26.5893C52.0238 23.2752 52.0238 19.9425 52.0433 16.6284V16.1828C52.0442 15.9082 52.1505 15.6452 52.3389 15.4514C52.5273 15.2576 52.7825 15.1487 53.0486 15.1487H53.9691C54.2306 15.1567 54.4794 15.2676 54.6644 15.4585C54.8494 15.6495 54.9568 15.9062 54.9646 16.1761L55.0102 16.7057ZM88.4736 16.8403C89.5814 15.7759 90.7822 15.0966 92.3414 15.0966C95.7221 15.1168 97.4671 17.9651 97.4491 21.2406L97.4296 26.7507C97.4302 26.8883 97.4045 27.0247 97.3538 27.152C97.3031 27.2793 97.2285 27.3949 97.1343 27.4923C97.0401 27.5897 96.9281 27.6669 96.8049 27.7194C96.6816 27.7719 96.5495 27.7987 96.4162 27.7983H95.3278C95.1944 27.7987 95.0622 27.7719 94.9389 27.7194C94.8156 27.6669 94.7035 27.5898 94.6092 27.4924C94.5148 27.3951 94.4401 27.2794 94.3892 27.1521C94.3383 27.0248 94.3124 26.8884 94.3128 26.7507L94.3324 21.286C94.3324 19.4835 93.3923 18.0694 91.5528 18.0694C89.7134 18.0694 88.586 19.6382 88.5664 21.4222L88.5403 26.7507C88.5373 27.0257 88.4288 27.2883 88.2385 27.4809C88.0483 27.6734 87.7918 27.7803 87.5253 27.7781H86.4549C86.1889 27.775 85.9349 27.6631 85.7486 27.4671C85.5623 27.2711 85.4589 27.0068 85.461 26.7322L85.4985 16.3241C85.4989 16.1872 85.5256 16.0519 85.5769 15.9257C85.6282 15.7996 85.7032 15.6852 85.7976 15.5891C85.8919 15.4929 86.0037 15.417 86.1266 15.3657C86.2495 15.3144 86.381 15.2886 86.5135 15.29H87.4341C87.6966 15.2989 87.9458 15.4112 88.1306 15.6038C88.3155 15.7964 88.4218 16.0547 88.4279 16.3257L88.4736 16.8403ZM44.7866 14.8646C41.124 14.8444 38.5335 17.5767 38.5139 21.3365C38.496 25.1348 41.0491 27.8302 44.7491 27.8487C48.4492 27.8672 51.0397 25.1937 51.0576 21.3701C51.0772 17.6356 48.4296 14.8831 44.7866 14.8646ZM75.1886 22.6362C75.4509 24.3799 77.0671 25.0962 78.6442 25.1163C79.4348 25.1092 80.2152 24.9311 80.935 24.5934C81.0507 24.5448 81.1633 24.4886 81.2722 24.4253C81.6486 24.2117 81.9858 24.0772 82.3247 24.4253C82.5121 24.6186 82.6815 24.8137 82.8689 24.9869C83.0459 25.1611 83.2093 25.3495 83.3577 25.5502C83.8644 26.2076 83.5076 26.364 82.9259 26.7709C81.6861 27.6234 80.0715 28.0488 78.5872 28.0488C74.6069 28.0303 71.9773 25.5266 71.9773 21.3835C71.9968 17.4674 74.6248 14.8713 78.4178 14.8898C82.2873 14.91 84.4835 17.2556 84.5405 21.2473C84.5584 22.3319 84.5959 22.6816 83.5076 22.6816L75.1886 22.6362ZM44.7866 17.7903C46.683 17.7903 47.9408 19.4969 47.9408 21.3768C47.9408 23.334 46.758 24.9078 44.767 24.9078C42.7761 24.9078 41.6128 23.3189 41.6128 21.3617C41.6128 19.4045 42.8152 17.7903 44.7866 17.7903ZM75.2717 19.9425L81.5068 19.961C81.2804 18.3519 79.9851 17.7129 78.5025 17.7129C77.0199 17.7129 75.7327 18.4309 75.2717 19.9425Z" fill="#29303A"></path></svg>