<svg xmlns="http://www.w3.org/2000/svg" width="62" height="62" viewBox="0 0 62 62" fill="none">
  <path d="M26.8897 24.1215L19.696 21.4979L12.5024 24.1215V5.1875H26.8897V24.1215Z" fill="#0078FF"></path>
  <path fill-rule="evenodd" clip-rule="evenodd" d="M0 5.1875C0 4.51872 0.542155 3.97656 1.21094 3.97656H38.1812C38.85 3.97656 39.3922 4.51872 39.3922 5.1875V36.6711C39.3922 37.3399 38.85 37.8821 38.1812 37.8821H1.21094C0.542155 37.8821 0 37.3399 0 36.6711V5.1875ZM2.42188 6.39844V35.4602H36.9703V6.39844H2.42188Z" fill="#002B44"></path>
  <path fill-rule="evenodd" clip-rule="evenodd" d="M0 42.8008C0 42.132 0.542155 41.5898 1.21094 41.5898H44.3083C44.9771 41.5898 45.5193 42.132 45.5193 42.8008C45.5193 43.4696 44.9771 44.0117 44.3083 44.0117H2.42187V48.5955H7.95356C8.62234 48.5955 9.1645 49.1376 9.1645 49.8064C9.1645 50.4752 8.62234 51.0174 7.95356 51.0174H1.21094C0.542155 51.0174 0 50.4752 0 49.8064V42.8008Z" fill="#002B44"></path>
  <path fill-rule="evenodd" clip-rule="evenodd" d="M21.2653 49.8066C21.2653 49.1379 21.8074 48.5957 22.4762 48.5957H38.4843C39.1531 48.5957 39.6952 49.1379 39.6952 49.8066C39.6952 50.4754 39.1531 51.0176 38.4843 51.0176H22.4762C21.8074 51.0176 21.2653 50.4754 21.2653 49.8066Z" fill="#002B44"></path>
  <path d="M49.1308 18.4512H44.3083V31.387H55.9317L53.6783 22.0372C53.1712 19.9334 51.2916 18.4512 49.1308 18.4512Z" fill="#0078FF"></path>
  <path fill-rule="evenodd" clip-rule="evenodd" d="M43.4727 31.3867C43.4727 30.7179 44.0148 30.1758 44.6836 30.1758H57.1732C59.8408 30.1758 62 32.3412 62 35.0084V45.1206C62 48.3752 59.3652 51.017 56.111 51.017H52.8236C52.1549 51.017 51.6127 50.4748 51.6127 49.806C51.6127 49.1373 52.1549 48.5951 52.8236 48.5951H56.111C58.024 48.5951 59.5781 47.0413 59.5781 45.1206V35.0084C59.5781 33.6751 58.4996 32.5977 57.1732 32.5977H44.6836C44.0148 32.5977 43.4727 32.0555 43.4727 31.3867Z" fill="#002B44"></path>
  <path fill-rule="evenodd" clip-rule="evenodd" d="M15.1992 44.0117C12.0069 44.0117 9.41565 46.6043 9.41565 49.8064C9.41565 53.0086 12.0069 55.6011 15.1992 55.6011C18.3916 55.6011 20.9828 53.0086 20.9828 49.8064C20.9828 46.6043 18.3916 44.0117 15.1992 44.0117ZM6.99377 49.8064C6.99377 45.2703 10.6657 41.5898 15.1992 41.5898C19.7328 41.5898 23.4046 45.2703 23.4046 49.8064C23.4046 54.3425 19.7328 58.023 15.1992 58.023C10.6657 58.023 6.99377 54.3425 6.99377 49.8064Z" fill="#002B44"></path>
  <path fill-rule="evenodd" clip-rule="evenodd" d="M45.6544 44.0117C42.4621 44.0117 39.8708 46.6043 39.8708 49.8064C39.8708 53.0086 42.4621 55.6011 45.6544 55.6011C48.8468 55.6011 51.438 53.0086 51.438 49.8064C51.438 46.6043 48.8468 44.0117 45.6544 44.0117ZM37.449 49.8064C37.449 45.2703 41.1209 41.5898 45.6544 41.5898C50.188 41.5898 53.8598 45.2703 53.8598 49.8064C53.8598 54.3425 50.188 58.023 45.6544 58.023C41.1209 58.023 37.449 54.3425 37.449 49.8064Z" fill="#002B44"></path>
  <path fill-rule="evenodd" clip-rule="evenodd" d="M44.3083 14.8066C44.9771 14.8066 45.5193 15.3488 45.5193 16.0176V42.8006C45.5193 43.4694 44.9771 44.0115 44.3083 44.0115C43.6395 44.0115 43.0974 43.4694 43.0974 42.8006V16.0176C43.0974 15.3488 43.6395 14.8066 44.3083 14.8066Z" fill="#002B44"></path>
</svg>
