<svg xmlns="http://www.w3.org/2000/svg" width="50" height="50" viewBox="0 0 50 50" fill="none"><path fill-rule="evenodd" clip-rule="evenodd" d="M6.64124 13.024C5.08672 13.024 3.73205 14.3773 3.73205 16.163V39.0587C3.73205 40.843 5.0825 42.1977 6.64124 42.1977H43.3586C44.9173 42.1977 46.2678 40.843 46.2678 39.0587V16.163C46.2678 14.378 44.913 13.024 43.3586 13.024H34.9373C34.4396 13.024 34.0362 12.6206 34.0362 12.1229C34.0362 11.6252 34.4396 11.2217 34.9373 11.2217H43.3586C46.0046 11.2217 48.0702 13.4816 48.0702 16.163V39.0587C48.0702 41.7372 46.0111 44.0001 43.3586 44.0001H6.64124C3.98877 44.0001 1.92969 41.7372 1.92969 39.0587V16.163C1.92969 13.4806 3.99536 11.2217 6.64124 11.2217H15.0665C15.5642 11.2217 15.9677 11.6252 15.9677 12.1229C15.9677 12.6206 15.5642 13.024 15.0665 13.024H6.64124Z" fill="#002B44"></path><path fill-rule="evenodd" clip-rule="evenodd" d="M3.46696 12.5139C3.81083 12.1541 4.38128 12.1412 4.7411 12.485L20.2579 27.3141L25.0474 31.0886L29.7387 27.3171L45.2587 12.485C45.6185 12.1412 46.189 12.1541 46.5329 12.5139C46.8767 12.8737 46.8638 13.4442 46.504 13.788L30.9561 28.6468C30.9375 28.6646 30.9182 28.6815 30.8981 28.6977L25.6176 32.9428C25.2904 33.2058 24.8249 33.2081 24.4952 32.9482L19.1086 28.7031C19.0861 28.6854 19.0644 28.6666 19.0437 28.6468L3.49584 13.788C3.13602 13.4442 3.12309 12.8737 3.46696 12.5139Z" fill="#002B44"></path><path fill-rule="evenodd" clip-rule="evenodd" d="M29.6593 27.3973C29.9894 27.0248 30.5589 26.9904 30.9315 27.3204L46.6457 41.2441C47.0182 41.5742 47.0526 42.1438 46.7226 42.5163C46.3925 42.8888 45.8229 42.9232 45.4504 42.5931L29.7362 28.6694C29.3636 28.3394 29.3292 27.7698 29.6593 27.3973Z" fill="#002B44"></path><path fill-rule="evenodd" clip-rule="evenodd" d="M20.3407 27.3973C20.6708 27.7698 20.6364 28.3394 20.2639 28.6694L4.54962 42.5931C4.1771 42.9232 3.60754 42.8888 3.27747 42.5163C2.9474 42.1438 2.98181 41.5742 3.35433 41.2441L19.0686 27.3204C19.4411 26.9904 20.0107 27.0248 20.3407 27.3973Z" fill="#002B44"></path><path d="M26.3359 18.5993H30.481C32.9383 18.5993 34.9373 16.6002 34.9373 14.143V10.4592C34.9373 8.00191 32.9383 6.00282 30.481 6.00282C18.9844 6.01994 19.422 5.95767 18.7874 6.06437C17.1096 6.34644 15.7218 7.58214 15.2474 9.21309C15.0556 9.86933 15.0597 10.3097 15.0706 11.4867C15.0866 13.2058 15.0711 13.9058 15.0704 14.1429C15.0704 16.4556 16.841 18.3624 19.0979 18.5789L22.7252 22.7561L26.3359 18.5993Z" fill="#0078FF"></path><path fill-rule="evenodd" clip-rule="evenodd" d="M18.6895 10.5242C18.6895 10.0265 19.0929 9.62305 19.5906 9.62305H30.4811C30.9788 9.62305 31.3823 10.0265 31.3823 10.5242C31.3823 11.0219 30.9788 11.4254 30.4811 11.4254H19.5906C19.0929 11.4254 18.6895 11.0219 18.6895 10.5242Z" fill="white"></path><path fill-rule="evenodd" clip-rule="evenodd" d="M18.6895 14.1434C18.6895 13.6457 19.0929 13.2422 19.5906 13.2422H30.4811C30.9788 13.2422 31.3823 13.6457 31.3823 14.1434C31.3823 14.6411 30.9788 15.0445 30.4811 15.0445H19.5906C19.0929 15.0445 18.6895 14.6411 18.6895 14.1434Z" fill="white"></path></svg>