<svg xmlns="http://www.w3.org/2000/svg" width="62" height="62" viewBox="0 0 62 62" fill="none">
  <g clip-path="url(#clip0_702_132)">
    <path d="M40.4185 41.0848C45.6203 35.883 45.6203 27.4491 40.4185 22.2472C35.2166 17.0454 26.7827 17.0454 21.5809 22.2472C16.379 27.4491 16.379 35.883 21.5809 41.0848C26.7827 46.2867 35.2166 46.2867 40.4185 41.0848Z" fill="#0078FF"></path>
    <path fill-rule="evenodd" clip-rule="evenodd" d="M2.77655 28.0851C3.00364 27.858 3.31165 27.7305 3.63281 27.7305H12.1094C12.7782 27.7305 13.3203 28.2726 13.3203 28.9414V47.1055C13.3203 47.7743 12.7782 48.3164 12.1094 48.3164H3.63281C3.31165 48.3164 3.00364 48.1888 2.77655 47.9617L0.354672 45.5399C0.127577 45.3128 -3.8147e-06 45.0048 -3.8147e-06 44.6836V31.3633C-3.8147e-06 31.0421 0.127577 30.7341 0.354672 30.507L2.77655 28.0851ZM4.1344 30.1523L2.42187 31.8649V44.182L4.1344 45.8945H10.8984V30.1523H4.1344Z" fill="#002B44"></path>
    <path fill-rule="evenodd" clip-rule="evenodd" d="M48.6797 28.9414C48.6797 28.2726 49.2219 27.7305 49.8907 27.7305H58.3672C58.6884 27.7305 58.9964 27.858 59.2235 28.0851L61.6454 30.507C61.8725 30.7341 62 31.0421 62 31.3633V44.6836C62 45.0048 61.8725 45.3128 61.6454 45.5399L59.2235 47.9617C58.9964 48.1888 58.6884 48.3164 58.3672 48.3164H49.8907C49.2219 48.3164 48.6797 47.7743 48.6797 47.1055V28.9414ZM51.1016 30.1523V45.8945H57.8656L59.5782 44.182V31.8649L57.8656 30.1523H51.1016Z" fill="#002B44"></path>
    <path fill-rule="evenodd" clip-rule="evenodd" d="M5.44934 25.5507C5.44934 11.495 16.9444 0 31 0C45.0557 0 56.5507 11.495 56.5507 25.5507V46.4999C56.5507 47.1687 56.0086 47.7109 55.3398 47.7109C54.671 47.7109 54.1288 47.1687 54.1288 46.4999V25.5507C54.1288 12.8326 43.7181 2.42188 31 2.42188C18.2819 2.42188 7.87122 12.8326 7.87122 25.5507V52.918C7.87122 54.9133 9.50874 56.5508 11.504 56.5508H24.9454C25.6141 56.5508 26.1563 57.093 26.1563 57.7617C26.1563 58.4305 25.6141 58.9727 24.9454 58.9727H11.504C8.17117 58.9727 5.44934 56.2508 5.44934 52.918V25.5507Z" fill="#002B44"></path>
    <path fill-rule="evenodd" clip-rule="evenodd" d="M23.7344 57.7617C23.7344 55.4279 25.6389 53.5234 27.9727 53.5234H34.0274C36.3612 53.5234 38.2656 55.4279 38.2656 57.7617C38.2656 60.0955 36.3612 62 34.0274 62H27.9727C25.6389 62 23.7344 60.0955 23.7344 57.7617ZM27.9727 55.9453C26.9764 55.9453 26.1563 56.7655 26.1563 57.7617C26.1563 58.758 26.9764 59.5781 27.9727 59.5781H34.0274C35.0236 59.5781 35.8438 58.758 35.8438 57.7617C35.8438 56.7655 35.0236 55.9453 34.0274 55.9453H27.9727Z" fill="#002B44"></path>
    <path fill-rule="evenodd" clip-rule="evenodd" d="M31 7.8711C24.6837 7.8711 18.8472 11.2409 15.689 16.7109C15.3546 17.2901 14.614 17.4885 14.0348 17.1541L9.68311 14.6417C9.10392 14.3073 8.90547 13.5667 9.23986 12.9875C9.57425 12.4083 10.3148 12.2099 10.894 12.5443L14.2286 14.4695C17.9336 8.86013 24.224 5.44922 31 5.44922C37.776 5.44922 44.0664 8.86013 47.7714 14.4695L51.1418 12.5236C51.721 12.1892 52.4616 12.3876 52.796 12.9668C53.1304 13.546 52.9319 14.2866 52.3527 14.621L47.9652 17.1541C47.386 17.4885 46.6454 17.2901 46.311 16.7109C43.1528 11.2409 37.3163 7.8711 31 7.8711Z" fill="#002B44"></path>
    <path fill-rule="evenodd" clip-rule="evenodd" d="M23.0078 29.4258C23.6766 29.4258 24.2188 29.9679 24.2188 30.6367V32.6958C24.2188 33.3646 23.6766 33.9067 23.0078 33.9067C22.3391 33.9067 21.7969 33.3646 21.7969 32.6958V30.6367C21.7969 29.9679 22.3391 29.4258 23.0078 29.4258Z" fill="white"></path>
    <path fill-rule="evenodd" clip-rule="evenodd" d="M28.336 26.4297C29.0047 26.4297 29.5469 26.9718 29.5469 27.6406V35.6929C29.5469 36.3617 29.0047 36.9038 28.336 36.9038C27.6672 36.9038 27.125 36.3617 27.125 35.6929V27.6406C27.125 26.9718 27.6672 26.4297 28.336 26.4297Z" fill="white"></path>
    <path fill-rule="evenodd" clip-rule="evenodd" d="M33.6641 29.4258C34.3328 29.4258 34.875 29.9679 34.875 30.6367V32.6958C34.875 33.3646 34.3328 33.9067 33.6641 33.9067C32.9953 33.9067 32.4531 33.3646 32.4531 32.6958V30.6367C32.4531 29.9679 32.9953 29.4258 33.6641 29.4258Z" fill="white"></path>
    <path fill-rule="evenodd" clip-rule="evenodd" d="M38.9922 28.2754C39.6609 28.2754 40.2031 28.8175 40.2031 29.4863V33.8457C40.2031 34.5145 39.6609 35.0566 38.9922 35.0566C38.3234 35.0566 37.7812 34.5145 37.7812 33.8457V29.4863C37.7812 28.8175 38.3234 28.2754 38.9922 28.2754Z" fill="white"></path>
  </g>
  <defs>
    <clipPath id="clip0_702_132">
      <rect width="62" height="62" fill="white"></rect>
    </clipPath>
  </defs>
</svg>
