<?xml version="1.0" encoding="UTF-8"?>
<svg xmlns="http://www.w3.org/2000/svg" width="137" height="36" viewBox="0 0 137 36" fill="none">
  <g clip-path="url(#clip0_484_1017)">
    <path d="M88.6401 16.1813C88.3059 14.8433 87.6377 13.8398 86.6353 13.1708C85.7478 12.5018 84.5158 12.1673 83.0749 12.1673C81.8533 12.1673 80.736 12.5018 79.8485 13.2858C78.8462 14.0698 78.1779 14.9583 77.8438 16.1813H88.6401ZM77.6141 19.8607C77.8334 21.3137 78.3972 22.5367 79.3996 23.3206C80.4019 24.1046 81.6235 24.5436 83.1897 24.5436C84.1921 24.5436 85.1945 24.3241 85.9775 23.8746C86.865 23.4252 87.4289 22.8712 87.9823 22.0872H92.9941C92.1065 24.2091 90.8745 25.8816 89.2039 27.1046C87.5333 28.3276 85.5286 28.8921 83.3046 28.8921C81.8533 28.8921 80.5168 28.6726 79.1803 28.1081C77.9587 27.6586 76.8415 26.8851 75.8391 25.7666C74.9516 24.8781 74.1685 23.6447 73.6151 22.4217C73.1662 21.0837 72.832 19.8607 72.832 18.4077C72.832 17.0698 73.1662 15.7318 73.6151 14.5088C74.0641 13.2858 74.8368 12.1673 75.7347 11.2788C76.7371 10.1604 77.8543 9.27185 79.1907 8.71785C80.4124 8.16384 81.7488 7.82935 83.0853 7.82935C84.8708 7.82935 86.4265 8.27882 87.9823 9.05234C89.4336 9.83631 90.7701 10.9443 91.7724 12.3973C92.4407 13.1813 92.8896 14.1847 93.2238 15.2928C93.5579 16.2962 93.6727 17.5192 93.6727 18.8572C93.6727 18.9722 93.6727 19.1917 93.6727 19.4112C93.6727 19.6307 93.6727 19.7457 93.6727 19.8607H77.6141Z" fill="white"></path>
    <path d="M32.6153 12.5645C28.6163 12.9094 27.5826 14.6237 27.5826 18.4077V28.9443H22.8945V18.6377C22.8945 12.9094 26.2148 8.10107 32.6153 8.10107V12.5645Z" fill="white"></path>
    <path d="M63.3066 22.9234C63.3066 15.7631 63.3066 8.59242 63.3066 1.54712H68.1514V8.24747H71.2733V12.5227H68.1514V22.9234C68.1514 24.0837 68.6108 24.6586 69.8846 24.6586H71.2733V28.9339H69.4252C66.1989 28.9339 63.3066 27.0837 63.3066 22.9234Z" fill="white"></path>
    <path d="M105.748 7.92334C110.718 7.92334 114.78 11.3101 115.908 15.8258H111.052C110.155 13.9024 108.118 12.554 105.748 12.554C102.48 12.554 99.8803 15.1568 99.8803 18.4286C99.8803 21.7003 102.48 24.3031 105.748 24.3031C108.118 24.3031 110.144 22.9442 111.052 21.0314H115.908C114.78 25.547 110.718 28.9338 105.748 28.9338C99.9952 28.9338 95.2549 24.1881 95.2549 18.4286C95.2549 12.669 99.9952 7.92334 105.748 7.92334Z" fill="white"></path>
    <path d="M122.518 28.3798V19.8815V15.8153C122.518 13.4216 124.554 11.3833 127.06 11.3833C129.451 11.3833 131.487 13.4216 131.487 15.8153V28.3902H136.509V15.9199C136.509 10.7666 132.207 6.45993 127.06 6.45993C125.389 6.45993 123.833 6.94077 122.518 7.66202V0H117.61V15.9199V19.8711V28.3693H122.518V28.3798Z" fill="white"></path>
    <path d="M34.2812 28.9023V9.35522H38.9172V28.9127H34.2812V28.9023Z" fill="white"></path>
    <path d="M36.5987 1.50513C38.2276 1.50513 39.5118 2.8222 39.5118 4.45286C39.5118 6.05217 38.2276 7.36924 36.5987 7.36924C34.9699 7.36924 33.6543 6.05217 33.6543 4.45286C33.6543 2.8222 34.9699 1.50513 36.5987 1.50513Z" fill="#0078FF"></path>
    <path d="M45.5366 18.0059C45.5366 19.8874 46.0378 21.3926 47.0714 22.4902C48.1365 23.5878 49.5147 24.1522 51.3001 24.1522C53.0543 24.1522 54.4638 23.5878 55.4975 22.4588C56.5312 21.3299 57.0637 19.7933 57.0637 17.8804C57.0637 16.1557 56.5312 14.7759 55.4349 13.647C54.3385 12.5494 52.9603 11.985 51.3001 11.985C49.6087 11.985 48.2304 12.5494 47.1341 13.6784C46.0691 14.7655 45.5366 16.208 45.5366 18.0059ZM40.6396 18.0372C40.6396 16.5947 40.8902 15.2463 41.4227 13.9606C41.9552 12.6749 42.707 11.5146 43.7094 10.5111C44.7117 9.47626 45.8707 8.69229 47.155 8.15919C48.4392 7.59473 49.7862 7.3125 51.1644 7.3125C52.6366 7.3125 53.9835 7.56337 55.2365 8.06511C56.4581 8.5355 57.6171 9.28811 58.6508 10.2602C59.7158 11.2951 60.5302 12.4554 61.1253 13.8038C61.6892 15.1522 61.9711 16.5007 61.9711 17.9118C61.9711 19.4797 61.7205 20.8909 61.2193 22.1766C60.7181 23.4623 59.9664 24.6226 58.964 25.6574C57.9303 26.7237 56.7714 27.5076 55.4871 28.0407C54.2028 28.6052 52.7932 28.8561 51.2584 28.8561C49.7235 28.8561 48.3453 28.5738 47.061 28.0407C45.8081 27.5076 44.6804 26.6923 43.6154 25.5947C42.6444 24.5285 41.8926 23.3682 41.3914 22.0825C40.8902 20.7968 40.6396 19.4484 40.6396 18.0372Z" fill="white"></path>
    <path d="M21.4011 18.44C21.4011 24.3643 16.6083 29.1692 10.6988 29.1692C9.8603 29.1692 9.04746 29.0737 8.26392 28.8902L14.0197 23.12C14.5396 22.7493 14.9936 22.2941 15.3634 21.7729L21.1192 16.0027C21.3059 16.7845 21.4011 17.6031 21.4011 18.44Z" fill="#0078FF"></path>
    <path d="M11.9177 24.0523L7.35186 28.6332C6.81363 28.457 6.29736 28.2368 5.80307 27.9799C5.51748 27.833 5.24287 27.6752 4.97559 27.5027V18.4399C4.97559 19.5301 5.27949 20.5505 5.80307 21.4168C6.8063 23.0759 8.62603 24.1808 10.7021 24.1808C11.1195 24.1844 11.5259 24.1404 11.9177 24.0523Z" fill="white"></path>
    <path d="M1.73918 12.5779C0.640751 14.2627 0 16.2779 0 18.4399V36.0001L4.97223 31.0154V18.4399C4.97223 17.3497 5.27612 16.3329 5.79971 15.463C6.80294 13.8039 8.62267 12.699 10.6987 12.699C13.8622 12.699 16.4252 15.2685 16.4252 18.4399C16.4252 18.8583 16.3813 19.2694 16.297 19.6622L20.8628 15.0849C19.4605 10.805 15.4403 7.71436 10.6987 7.71436C8.9339 7.71436 7.26794 8.14382 5.79971 8.90363C5.79971 8.90363 3.38316 9.9938 1.73918 12.5779Z" fill="white"></path>
  </g>
  <defs>
    <clipPath id="clip0_484_1017">
      <rect width="136.8" height="36" fill="white"></rect>
    </clipPath>
  </defs>
</svg>
