<svg xmlns="http://www.w3.org/2000/svg" width="50" height="50" viewBox="0 0 50 50" fill="none"><g clip-path="url(#clip0_706_1477)"><path fill-rule="evenodd" clip-rule="evenodd" d="M25 28.9464C31.4545 28.9464 36.7188 23.6822 36.7188 17.2277C36.1193 1.70453 13.8783 1.70873 13.2812 17.2279C13.2812 23.6822 18.5455 28.9464 25 28.9464Z" fill="#0078FF"></path><path d="M30.1562 39.5333C35.7717 32.9851 42.2274 24.525 42.2274 17.2276C42.2274 7.72829 34.4991 0 24.9999 0C15.5008 0 7.77246 7.72829 7.77246 17.2276C7.77246 24.525 14.2282 32.9851 19.8437 39.5333C14.5157 40.1209 9.37499 41.709 9.37499 44.6289C9.37499 45.7907 10.24 47.4354 14.3614 48.6717C17.2166 49.5282 20.9949 50 24.9999 50C29.005 50 32.7833 49.5282 35.6385 48.6717C39.7597 47.4353 40.6249 45.7907 40.6249 44.6289C40.6249 41.7089 35.4842 40.1209 30.1562 39.5333ZM24.9999 1.95312C33.4223 1.95312 40.2743 8.80524 40.2743 17.2276C40.2227 25.5105 30.9682 35.6611 24.9999 42.4632C19.0327 35.6631 9.77607 25.5088 9.72558 17.2276C9.72558 8.80524 16.5776 1.95312 24.9999 1.95312ZM35.0772 46.801C29.8387 48.4496 20.1612 48.4496 14.9225 46.8009C12.0793 45.948 11.328 45.0071 11.328 44.6289C11.328 43.7749 14.3776 41.8904 21.4168 41.3473C21.8967 41.8954 22.3644 42.4262 22.8148 42.9372C23.3249 43.516 23.8106 44.0672 24.2637 44.5869C24.4492 44.7997 24.7176 44.9218 24.9998 44.9218C25.2821 44.9218 25.5505 44.7997 25.736 44.5869C26.1891 44.0672 26.6747 43.516 27.1849 42.9372C27.6353 42.4262 28.1029 41.8955 28.5828 41.3473C35.6221 41.8904 38.6717 43.7749 38.6717 44.6289C38.6718 45.0071 37.9206 45.948 35.0772 46.801Z" fill="#002B44"></path><path d="M31.6895 21.2803C31.6895 20.741 31.2522 20.3038 30.713 20.3038H30.2247V16.1691C30.6543 16.4178 31.2107 16.3043 31.5062 15.8928C31.8209 15.4547 31.7206 14.8446 31.2825 14.5299L25.5696 10.4284C25.2294 10.184 24.7708 10.184 24.4306 10.4284L18.7177 14.5299C18.2796 14.8445 18.1793 15.4546 18.4939 15.8928C18.7893 16.3043 19.3459 16.4178 19.7755 16.1691V20.3038H19.2872C17.995 20.3508 17.9919 22.2085 19.2872 22.2569H30.713C31.2522 22.2569 31.6895 21.8197 31.6895 21.2803ZM28.2716 20.3038H21.7286V14.7726L25.0001 12.4239L28.2716 14.7726V20.3038Z" fill="white"></path></g><defs><clipPath id="clip0_706_1477"><rect width="50" height="50" fill="white"></rect></clipPath></defs></svg>