<svg xmlns="http://www.w3.org/2000/svg" width="50" height="50" viewBox="0 0 50 50" fill="none"><path d="M22.9397 42.734C21.9826 42.734 21.0354 42.5778 20.0979 42.2653C17.8713 41.5133 16.0647 39.9313 15.0197 37.8219L3.73069 14.9215C1.58225 10.5661 3.37912 5.26334 7.74436 3.1149C9.61936 2.18717 11.7385 2.05045 13.7112 2.72428C15.6936 3.3981 17.2854 4.79459 18.2131 6.65982L19.424 9.11099C20.7229 11.7379 19.6389 14.9411 17.0022 16.2399L15.1565 17.1481L20.2053 27.3825L22.051 26.4743C23.3303 25.8493 24.7658 25.7516 26.1135 26.2106C27.4612 26.6696 28.5451 27.6169 29.1799 28.8962L30.4006 31.3669C32.3049 35.2243 30.7131 39.9118 26.8459 41.8063L26.8362 41.8161C25.6057 42.4215 24.2776 42.734 22.9397 42.734ZM11.2014 4.25748C10.3127 4.25748 9.43381 4.46256 8.6135 4.86295C5.21506 6.54263 3.80881 10.6637 5.4885 14.0622L16.7776 36.9528C17.5881 38.5934 18.9944 39.8239 20.7229 40.4098C22.4612 40.9958 24.3264 40.8786 25.967 40.0583L25.9768 40.0485C28.8772 38.6227 30.0686 35.1071 28.6428 32.2165L27.4221 29.7458C27.0217 28.9352 26.3381 28.3395 25.4787 28.0465C24.6291 27.7536 23.7112 27.8219 22.9006 28.2126L20.176 29.5504C19.9416 29.6676 19.6779 29.6872 19.4338 29.5993C19.1897 29.5114 18.9846 29.3356 18.8674 29.111L12.9592 17.1188C12.7248 16.6305 12.9201 16.0544 13.3987 15.8102L16.1233 14.4723C17.7932 13.652 18.4768 11.6208 17.6565 9.9606L16.4651 7.5192C15.7717 6.11295 14.5803 5.06803 13.0959 4.56998C12.4709 4.3649 11.8362 4.25748 11.2014 4.25748Z" fill="#002B44"></path><path d="M40.9961 49.9992H23.0566C22.5195 49.9992 22.0801 49.5598 22.0801 49.0227C22.0801 48.4856 22.5195 48.0461 23.0566 48.0461H40.9863C41.5723 48.0461 42.0508 47.5676 42.0508 46.9817C42.0508 46.3957 41.5723 45.9172 40.9863 45.9172H30.5566C29.6973 45.9172 28.877 45.5461 28.3008 44.9016L26.1621 42.4992C25.8008 42.0989 25.8398 41.4836 26.2402 41.1223C26.6406 40.761 27.2559 40.8 27.6172 41.2004L29.7559 43.6028C29.9609 43.8274 30.2441 43.9641 30.5566 43.9641H40.9961C42.6562 43.9641 44.0137 45.3117 44.0137 46.9817C44.0137 48.6516 42.6562 49.9992 40.9961 49.9992Z" fill="#002B44"></path><path d="M35.1074 24.082C41.7737 24.082 47.1777 18.6911 47.1777 12.041C47.1777 5.39095 41.7737 0 35.1074 0C28.4412 0 23.0371 5.39095 23.0371 12.041C23.0371 18.6911 28.4412 24.082 35.1074 24.082Z" fill="#0078FF"></path><path d="M40.1564 17.3246C40.1466 17.3246 40.1466 17.3246 40.1564 17.3246C39.6095 17.3246 39.1798 16.8754 39.1798 16.3383C39.1798 15.8598 39.1896 15.3324 39.1896 14.7758H35.8497C35.5079 14.7758 35.1856 14.5903 35.0099 14.2973C34.8341 14.0043 34.8243 13.6332 35.0001 13.3305C35.6837 12.0903 37.9591 8.00822 38.4474 7.40276C38.8966 6.84612 39.5216 6.62151 40.0978 6.80705C40.6837 6.9926 41.0939 7.54924 41.1524 8.2426C41.1817 8.54533 41.172 10.7621 41.1622 12.8324H41.2794C41.8165 12.8324 42.256 13.2719 42.256 13.809C42.256 14.3461 41.8165 14.7856 41.2794 14.7856H41.1427C41.1329 15.4985 41.1329 16.0649 41.1329 16.3676C41.1232 16.8949 40.6935 17.3246 40.1564 17.3246ZM37.5099 12.8324H39.1993C39.2091 11.7289 39.2091 10.6645 39.2091 9.84416C38.7501 10.6254 38.1446 11.7094 37.5099 12.8324Z" fill="white"></path><path d="M30.8692 17.3438C29.2286 17.3438 29.1016 17.3047 28.9747 17.2559C28.6524 17.1484 28.4082 16.9043 28.3106 16.582C28.1446 16.0449 28.3887 15.7227 28.9258 15.0293C29.3555 14.4727 30.1465 13.4277 31.4844 11.5234C31.8653 10.9766 32.1094 10.4883 32.2168 10.0781L32.2461 9.87305C32.2168 9.24805 31.6993 8.75 31.0645 8.75C30.4981 8.75 30.0098 9.15039 29.9024 9.69727C29.795 10.2246 29.2871 10.5664 28.7598 10.4687C28.2325 10.3613 27.8907 9.85352 27.9883 9.32617C28.2715 7.86133 29.5704 6.79688 31.0645 6.79688C32.793 6.79688 34.1993 8.20312 34.1993 9.93164C34.1993 9.9707 34.1993 10.0098 34.1895 10.0586L34.1504 10.3809C34.1504 10.4102 34.1407 10.4492 34.1309 10.4785C33.9746 11.1426 33.6231 11.875 33.086 12.6465C32.2168 13.877 31.5723 14.7656 31.1133 15.3809C31.8555 15.3809 32.7344 15.3711 33.5743 15.3613H33.584C34.1211 15.3613 34.5508 15.791 34.5606 16.3281C34.5704 16.8652 34.1309 17.3145 33.5938 17.3145C32.3829 17.334 31.5039 17.3438 30.8692 17.3438Z" fill="white"></path></svg>